<?xml version="1.0" encoding="utf-8"?>
<!-- Generator: Adobe Illustrator 16.0.4, SVG Export Plug-In . SVG Version: 6.00 Build 0)  -->
<!DOCTYPE svg PUBLIC "-//W3C//DTD SVG 1.1//EN" "http://www.w3.org/Graphics/SVG/1.1/DTD/svg11.dtd" [
	<!ENTITY ns_flows "http://ns.adobe.com/Flows/1.0/">
	<!ENTITY ns_extend "http://ns.adobe.com/Extensibility/1.0/">
	<!ENTITY ns_ai "http://ns.adobe.com/AdobeIllustrator/10.0/">
	<!ENTITY ns_graphs "http://ns.adobe.com/Graphs/1.0/">
]>
<svg version="1.1" id="inspiring-online" xmlns:x="&ns_extend;" xmlns:i="&ns_ai;" xmlns:graph="&ns_graphs;"
	 xmlns="http://www.w3.org/2000/svg" xmlns:xlink="http://www.w3.org/1999/xlink" xmlns:a="http://ns.adobe.com/AdobeSVGViewerExtensions/3.0/"
	 x="0px" y="0px" width="32px" height="32px" viewBox="0 0 32 32" enable-background="new 0 0 32 32" xml:space="preserve">
<path id="globe" fill-rule="evenodd" clip-rule="evenodd" d="M16.207,0.001l0.206,0.004l0.205,0.007l0.205,0.009l0.205,0.012
	l0.203,0.014l0.202,0.016l0.202,0.02l0.201,0.021l0.201,0.025l0.2,0.026l0.198,0.029l0.198,0.032l0.197,0.034l0.197,0.036
	l0.195,0.039l0.194,0.041l0.194,0.044l0.192,0.046l0.193,0.048l0.191,0.05l0.189,0.053l0.19,0.055l0.188,0.057l0.188,0.06
	l0.187,0.062l0.186,0.064l0.184,0.066l0.184,0.068l0.183,0.071l0.181,0.073l0.18,0.074l0.18,0.077l0.178,0.079l0.176,0.082
	l0.176,0.083l0.175,0.085l0.173,0.087l0.172,0.09l0.171,0.091l0.169,0.094l0.168,0.095l0.167,0.097l0.166,0.099l0.164,0.102
	l0.163,0.103l0.161,0.105l0.161,0.107l0.159,0.108l0.156,0.111l0.156,0.112l0.155,0.115l0.152,0.116l0.152,0.118l0.151,0.119
	l0.147,0.122l0.148,0.123l0.146,0.125l0.145,0.126l0.143,0.129l0.142,0.129l0.14,0.132l0.138,0.133l0.138,0.135l0.135,0.137
	l0.133,0.138l0.132,0.14l0.129,0.141l0.129,0.143l0.126,0.144l0.125,0.146l0.123,0.148l0.122,0.148l0.119,0.151l0.118,0.152
	l0.116,0.153l0.114,0.155l0.112,0.156l0.111,0.157l0.107,0.159l0.107,0.161l0.104,0.161l0.104,0.163l0.102,0.164l0.1,0.166
	l0.097,0.167l0.096,0.168l0.094,0.169l0.091,0.171l0.09,0.172l0.087,0.173l0.085,0.174l0.083,0.176l0.082,0.176l0.079,0.178
	l0.077,0.179l0.074,0.18l0.072,0.181l0.071,0.182l0.068,0.184l0.065,0.184l0.064,0.185l0.062,0.187l0.061,0.187l0.057,0.188
	l0.055,0.19l0.054,0.19l0.05,0.191l0.048,0.193l0.046,0.193l0.044,0.194l0.041,0.194l0.039,0.196l0.036,0.197l0.034,0.197
	l0.032,0.198l0.028,0.199l0.026,0.2l0.025,0.201l0.021,0.201l0.02,0.202l0.017,0.203l0.015,0.203l0.011,0.205l0.01,0.205
	l0.007,0.205l0.004,0.206L32,16l-0.001,0.207l-0.004,0.206l-0.007,0.206l-0.01,0.204l-0.011,0.205l-0.015,0.203l-0.017,0.202
	l-0.02,0.202l-0.021,0.201l-0.025,0.201l-0.026,0.2l-0.028,0.198l-0.032,0.198l-0.034,0.197l-0.036,0.197l-0.039,0.195l-0.041,0.194
	l-0.044,0.194l-0.046,0.192l-0.048,0.193l-0.05,0.191l-0.054,0.189l-0.055,0.19l-0.057,0.188l-0.061,0.188l-0.062,0.187
	l-0.064,0.186l-0.065,0.184l-0.068,0.184l-0.071,0.183l-0.072,0.181l-0.074,0.18l-0.077,0.18l-0.079,0.178l-0.082,0.176
	l-0.083,0.177l-0.085,0.174l-0.087,0.173l-0.09,0.172l-0.091,0.171l-0.094,0.169l-0.096,0.168l-0.097,0.167l-0.1,0.166l-0.102,0.164
	l-0.104,0.163l-0.104,0.161l-0.107,0.161l-0.107,0.159l-0.111,0.156l-0.112,0.156l-0.114,0.155l-0.116,0.152l-0.118,0.152
	l-0.119,0.151l-0.122,0.147l-0.123,0.148l-0.125,0.146l-0.126,0.145l-0.129,0.143l-0.129,0.142l-0.132,0.14l-0.133,0.138
	l-0.135,0.138l-0.138,0.135l-0.138,0.133l-0.14,0.132l-0.142,0.129l-0.143,0.129l-0.145,0.126l-0.146,0.125l-0.148,0.123
	l-0.147,0.122l-0.151,0.119l-0.152,0.118l-0.152,0.116l-0.155,0.114l-0.156,0.112l-0.156,0.111l-0.159,0.107l-0.161,0.107
	l-0.161,0.104l-0.163,0.104l-0.164,0.102l-0.166,0.1l-0.167,0.097l-0.168,0.096l-0.169,0.094l-0.171,0.091l-0.172,0.09l-0.173,0.087
	l-0.175,0.085l-0.176,0.083l-0.176,0.082l-0.178,0.079l-0.18,0.077l-0.18,0.074l-0.181,0.072l-0.183,0.071l-0.184,0.068
	l-0.184,0.065l-0.186,0.064l-0.187,0.062l-0.188,0.061l-0.188,0.057l-0.19,0.055l-0.189,0.054l-0.191,0.05l-0.193,0.048
	l-0.192,0.046l-0.194,0.044l-0.194,0.041l-0.195,0.039l-0.197,0.036l-0.197,0.034l-0.198,0.032l-0.198,0.028l-0.2,0.026
	l-0.201,0.025l-0.201,0.021l-0.202,0.021l-0.202,0.016l-0.203,0.015l-0.205,0.011l-0.205,0.01l-0.205,0.007l-0.206,0.004L16,32
	l-0.207-0.001l-0.206-0.004l-0.206-0.007l-0.204-0.01l-0.205-0.011l-0.203-0.015l-0.203-0.016l-0.202-0.021l-0.201-0.021
	l-0.201-0.025l-0.2-0.026l-0.199-0.028l-0.198-0.032l-0.197-0.034l-0.197-0.036l-0.196-0.039l-0.194-0.041l-0.194-0.044
	l-0.194-0.046l-0.192-0.048l-0.191-0.05l-0.19-0.054l-0.19-0.055l-0.188-0.057l-0.187-0.061l-0.187-0.062l-0.185-0.064l-0.184-0.065
	l-0.184-0.068l-0.182-0.071l-0.181-0.072l-0.18-0.074l-0.179-0.077l-0.178-0.079l-0.176-0.082l-0.176-0.083l-0.174-0.085
	L8.716,30.25l-0.172-0.09l-0.171-0.091l-0.169-0.094L8.036,29.88l-0.167-0.097l-0.166-0.1l-0.164-0.102l-0.163-0.104l-0.161-0.104
	l-0.161-0.107l-0.159-0.107l-0.157-0.111l-0.156-0.112l-0.155-0.114l-0.153-0.116l-0.152-0.118l-0.151-0.119l-0.148-0.122
	l-0.148-0.123l-0.146-0.125l-0.144-0.126l-0.143-0.129l-0.141-0.129l-0.14-0.132l-0.138-0.133l-0.137-0.135l-0.135-0.138
	l-0.133-0.138l-0.132-0.14l-0.129-0.142l-0.129-0.143l-0.126-0.145l-0.125-0.146l-0.123-0.148l-0.122-0.147l-0.119-0.151
	l-0.118-0.152l-0.116-0.152l-0.115-0.155l-0.112-0.156l-0.111-0.156l-0.108-0.159l-0.107-0.161l-0.105-0.161l-0.103-0.163
	l-0.102-0.164l-0.099-0.166L2.12,23.964l-0.096-0.168l-0.093-0.169L1.84,23.456l-0.09-0.172l-0.087-0.173l-0.085-0.174l-0.083-0.177
	l-0.082-0.176l-0.079-0.178l-0.077-0.18l-0.074-0.18L1.11,21.867l-0.071-0.183l-0.068-0.184l-0.066-0.184l-0.064-0.186l-0.062-0.187
	l-0.06-0.188L0.662,20.57l-0.055-0.19L0.554,20.19l-0.05-0.191l-0.048-0.193L0.41,19.613l-0.044-0.194l-0.041-0.194l-0.039-0.195
	L0.25,18.832l-0.034-0.197l-0.032-0.198l-0.029-0.198l-0.026-0.2l-0.025-0.201l-0.021-0.201l-0.02-0.202l-0.016-0.202l-0.015-0.203
	l-0.011-0.205l-0.009-0.204l-0.007-0.206l-0.004-0.206L0,16l0.001-0.207l0.004-0.206l0.007-0.205l0.009-0.205l0.011-0.205
	l0.015-0.203l0.016-0.203l0.02-0.202l0.021-0.201l0.025-0.201l0.026-0.2l0.029-0.199l0.032-0.198l0.034-0.197l0.036-0.197
	l0.039-0.196l0.041-0.194l0.044-0.194l0.046-0.193l0.048-0.193l0.05-0.191l0.053-0.19l0.055-0.19l0.057-0.188l0.06-0.187
	l0.062-0.187l0.064-0.185l0.066-0.184l0.068-0.184l0.071-0.182l0.073-0.181l0.074-0.18l0.077-0.179l0.079-0.178l0.082-0.176
	l0.083-0.176l0.085-0.174L1.75,8.716l0.09-0.172l0.091-0.171l0.093-0.169L2.12,8.036l0.097-0.167l0.099-0.166l0.102-0.164
	l0.103-0.163l0.105-0.161l0.107-0.161l0.108-0.159l0.111-0.157l0.112-0.156l0.115-0.155l0.116-0.153l0.118-0.152l0.119-0.151
	l0.122-0.148l0.123-0.148l0.125-0.146l0.126-0.144l0.129-0.143l0.129-0.141l0.132-0.14l0.133-0.138l0.135-0.137l0.137-0.135
	l0.138-0.133l0.14-0.132l0.141-0.129l0.143-0.129l0.144-0.126l0.146-0.125l0.148-0.123l0.148-0.122l0.151-0.119l0.152-0.118
	l0.153-0.116l0.155-0.115l0.156-0.112l0.157-0.111l0.159-0.108l0.161-0.107l0.161-0.105l0.163-0.103l0.164-0.102l0.166-0.099
	L8.036,2.12l0.168-0.095l0.169-0.094L8.544,1.84l0.172-0.09l0.173-0.087l0.174-0.085l0.176-0.083l0.176-0.082l0.178-0.079
	l0.179-0.077l0.18-0.074l0.181-0.073l0.182-0.071l0.184-0.068l0.184-0.066l0.185-0.064l0.187-0.062l0.187-0.06l0.188-0.057
	l0.19-0.055l0.19-0.053l0.191-0.05l0.192-0.048l0.194-0.046l0.194-0.044l0.194-0.041l0.196-0.039l0.197-0.036l0.197-0.034
	l0.198-0.032l0.199-0.029l0.2-0.026l0.201-0.025l0.201-0.021l0.202-0.02l0.203-0.016l0.203-0.014l0.205-0.012l0.204-0.009
	l0.206-0.007l0.206-0.004L16,0L16.207,0.001L16.207,0.001z M15.818,2.001l-0.18,0.004L15.457,2.01l-0.179,0.008l-0.179,0.011
	l-0.178,0.012l-0.178,0.015l-0.177,0.016L14.39,2.091l-0.176,0.022L14.04,2.136l-0.175,0.025l-0.173,0.028l-0.173,0.03l-0.172,0.032
	l-0.171,0.034l-0.17,0.036l-0.17,0.038l-0.168,0.04L12.5,2.441l-0.167,0.044l-0.167,0.046l-0.165,0.048l-0.165,0.05l-0.164,0.052
	l-0.163,0.054l-0.162,0.056l-0.161,0.058l-0.16,0.06L10.867,2.97l-0.158,0.064l-0.158,0.065l-0.156,0.068l-0.156,0.069l-0.154,0.071
	L9.932,3.38L9.779,3.454L9.628,3.531L9.477,3.609l-0.149,0.08L9.18,3.77L9.033,3.854L8.887,3.939L8.742,4.026L8.598,4.114
	l-0.142,0.09L8.314,4.296L8.174,4.39L8.035,4.485L7.897,4.582L7.76,4.68l-0.135,0.1L7.491,4.882L7.358,4.985L7.226,5.09l-0.13,0.106
	l-0.13,0.108L6.839,5.413L6.712,5.524L6.587,5.637L6.463,5.75L6.341,5.866L6.22,5.982L6.101,6.101L5.982,6.22L5.866,6.341
	L5.75,6.463L5.637,6.587L5.524,6.712L5.413,6.839L5.304,6.966l-0.108,0.13L5.09,7.226L4.985,7.358L4.882,7.491L4.78,7.625L4.68,7.76
	L4.582,7.897L4.485,8.035L4.39,8.174l-0.094,0.14L4.204,8.456l-0.09,0.142L4.026,8.742L3.939,8.887L3.854,9.033L3.77,9.18
	L3.689,9.328l-0.08,0.149L3.531,9.628L3.454,9.779L3.38,9.932l-0.073,0.153l-0.071,0.154l-0.069,0.156l-0.068,0.156l-0.065,0.158
	L2.97,10.867l-0.061,0.159l-0.06,0.16l-0.058,0.161l-0.056,0.162l-0.054,0.163l-0.052,0.164l-0.05,0.165l-0.048,0.165l-0.046,0.167
	L2.441,12.5l-0.042,0.168l-0.04,0.168l-0.039,0.17l-0.036,0.17l-0.033,0.172l-0.032,0.171l-0.03,0.173l-0.028,0.173L2.136,14.04
	l-0.023,0.174L2.091,14.39l-0.019,0.176l-0.016,0.177l-0.015,0.178l-0.013,0.178l-0.01,0.179L2.01,15.457l-0.005,0.181l-0.004,0.181
	L2,16l0.001,0.182l0.004,0.18l0.005,0.182l0.008,0.179l0.01,0.18l0.013,0.178l0.015,0.178l0.016,0.177l0.019,0.177l0.022,0.176
	l0.023,0.174l0.025,0.175l0.028,0.173l0.03,0.173l0.032,0.172l0.033,0.172l0.036,0.17l0.039,0.17l0.04,0.168L2.441,19.5l0.044,0.167
	l0.046,0.167l0.048,0.165l0.05,0.165l0.052,0.164l0.054,0.163l0.056,0.162l0.058,0.161l0.06,0.159l0.061,0.159l0.064,0.158
	l0.065,0.158l0.068,0.156l0.069,0.155l0.071,0.154l0.073,0.153l0.074,0.152l0.077,0.151l0.078,0.151l0.08,0.148L3.77,22.82
	l0.084,0.146l0.085,0.146l0.087,0.145l0.088,0.145l0.09,0.142l0.092,0.142l0.094,0.141l0.095,0.139l0.097,0.138L4.68,24.24
	l0.1,0.135l0.102,0.134l0.103,0.133l0.105,0.133l0.106,0.13l0.108,0.13l0.109,0.127l0.111,0.127l0.113,0.125l0.113,0.124
	l0.116,0.122l0.116,0.121l0.119,0.119l0.119,0.118l0.121,0.116l0.122,0.116l0.124,0.113l0.125,0.112l0.127,0.111l0.127,0.109
	l0.13,0.107l0.13,0.106l0.132,0.104l0.133,0.104l0.134,0.102L7.76,27.32l0.137,0.098l0.138,0.097l0.139,0.096l0.14,0.094
	l0.142,0.092l0.142,0.09l0.144,0.088l0.145,0.087l0.146,0.086L9.18,28.23l0.148,0.08l0.149,0.08l0.151,0.078l0.151,0.077
	l0.152,0.074l0.154,0.073l0.154,0.07l0.156,0.069l0.156,0.068l0.158,0.064l0.158,0.064l0.159,0.061l0.16,0.061l0.161,0.058
	l0.162,0.056l0.163,0.055l0.164,0.052l0.165,0.05l0.165,0.048l0.167,0.046l0.167,0.044l0.168,0.042l0.168,0.04l0.17,0.039
	l0.17,0.036l0.171,0.033l0.172,0.032l0.173,0.029l0.173,0.028l0.175,0.025l0.174,0.022l0.176,0.022l0.176,0.019l0.177,0.017
	l0.178,0.015l0.178,0.013l0.179,0.011l0.179,0.008l0.181,0.005l0.18,0.004L16,30l0.181-0.001l0.182-0.004l0.18-0.005l0.18-0.008
	l0.18-0.011l0.178-0.013l0.178-0.015l0.177-0.017l0.177-0.019l0.176-0.022l0.174-0.022l0.175-0.025l0.173-0.028l0.174-0.029
	l0.171-0.032l0.172-0.033l0.17-0.036l0.17-0.039l0.168-0.04l0.168-0.042l0.167-0.044l0.167-0.046l0.165-0.048l0.165-0.05
	l0.164-0.052l0.163-0.055l0.162-0.056l0.161-0.058l0.159-0.061l0.159-0.061l0.158-0.064l0.158-0.064l0.156-0.068l0.155-0.069
	l0.154-0.07l0.153-0.073l0.152-0.074l0.151-0.077l0.151-0.078l0.148-0.08l0.148-0.08l0.146-0.084l0.146-0.086l0.145-0.087
	l0.145-0.088l0.142-0.09l0.142-0.092l0.141-0.094l0.139-0.096l0.138-0.097l0.138-0.098l0.135-0.101l0.134-0.102l0.133-0.104
	l0.133-0.104l0.13-0.106l0.13-0.107l0.127-0.109l0.127-0.111l0.125-0.112l0.124-0.113l0.122-0.116l0.121-0.116l0.119-0.118
	l0.118-0.119l0.116-0.121l0.116-0.122l0.113-0.124l0.112-0.125l0.111-0.127l0.109-0.127l0.107-0.13l0.106-0.13l0.104-0.133
	l0.104-0.133l0.102-0.134l0.101-0.135l0.098-0.138l0.097-0.138l0.096-0.139l0.094-0.141l0.092-0.142l0.09-0.142l0.088-0.145
	l0.087-0.145l0.086-0.146l0.084-0.146l0.08-0.148l0.08-0.148l0.078-0.151l0.077-0.151l0.074-0.152l0.073-0.153l0.07-0.154
	l0.069-0.155l0.068-0.156l0.064-0.158l0.064-0.158l0.061-0.159l0.061-0.159l0.058-0.161l0.056-0.162l0.055-0.163l0.052-0.164
	l0.05-0.165l0.048-0.165l0.046-0.167l0.044-0.167l0.042-0.168l0.04-0.168l0.039-0.17l0.036-0.17l0.033-0.172l0.032-0.172
	l0.029-0.173l0.028-0.173l0.025-0.175l0.022-0.174l0.022-0.176l0.019-0.177l0.017-0.177l0.015-0.178l0.013-0.178l0.011-0.18
	l0.008-0.179l0.005-0.182l0.004-0.18L30,16l-0.001-0.181l-0.004-0.181l-0.005-0.181l-0.008-0.179l-0.011-0.179l-0.013-0.178
	l-0.015-0.178l-0.017-0.177l-0.019-0.176l-0.022-0.176l-0.022-0.174l-0.025-0.175l-0.028-0.173l-0.029-0.173l-0.032-0.171
	l-0.033-0.172l-0.036-0.17l-0.039-0.17l-0.04-0.168L29.559,12.5l-0.044-0.167l-0.046-0.167l-0.048-0.165l-0.05-0.165l-0.052-0.164
	l-0.055-0.163l-0.056-0.162l-0.058-0.161l-0.061-0.16l-0.061-0.159l-0.064-0.158l-0.064-0.158l-0.068-0.156l-0.069-0.156
	l-0.07-0.154L28.62,9.932l-0.074-0.153l-0.077-0.151l-0.078-0.151l-0.08-0.149L28.23,9.18l-0.084-0.147l-0.086-0.146l-0.087-0.145
	l-0.088-0.144l-0.09-0.142l-0.092-0.142l-0.094-0.14l-0.096-0.139l-0.097-0.138L27.32,7.76L27.22,7.625l-0.102-0.134l-0.104-0.133
	L26.91,7.226l-0.106-0.13l-0.107-0.13l-0.109-0.127l-0.111-0.127l-0.112-0.125L26.25,6.463l-0.116-0.122L26.018,6.22l-0.118-0.119
	L25.78,5.982l-0.121-0.116L25.537,5.75l-0.124-0.113l-0.125-0.113l-0.127-0.111l-0.127-0.109l-0.13-0.108l-0.13-0.106l-0.133-0.105
	l-0.133-0.103L24.375,4.78l-0.135-0.1l-0.138-0.098l-0.138-0.097L23.826,4.39l-0.141-0.094l-0.142-0.092l-0.142-0.09l-0.145-0.088
	l-0.145-0.087l-0.146-0.085L22.82,3.77l-0.148-0.081l-0.148-0.08l-0.151-0.078l-0.151-0.077L22.068,3.38l-0.153-0.073l-0.154-0.071
	l-0.155-0.069l-0.156-0.068l-0.158-0.065L21.133,2.97l-0.159-0.061l-0.159-0.06l-0.161-0.058l-0.162-0.056l-0.163-0.054
	l-0.164-0.052l-0.165-0.05l-0.165-0.048l-0.167-0.046L19.5,2.441l-0.168-0.042l-0.168-0.04l-0.17-0.038l-0.17-0.036l-0.172-0.034
	l-0.171-0.032l-0.174-0.03l-0.173-0.028L17.96,2.136l-0.174-0.023L17.61,2.091l-0.177-0.019l-0.177-0.016l-0.178-0.015l-0.178-0.012
	l-0.18-0.011l-0.18-0.008l-0.18-0.005l-0.182-0.004L16,2L15.818,2.001L15.818,2.001z"/>
<line id="meridian" fill="none" stroke="#000000" stroke-width="2" stroke-linejoin="round" stroke-miterlimit="10" x1="16" y1="1" x2="16" y2="31"/>
<path id="longitudes" fill-rule="evenodd" clip-rule="evenodd" d="M16.116,0.001l0.116,0.004l0.115,0.007l0.115,0.009l0.115,0.011
	l0.114,0.015l0.113,0.016l0.114,0.02l0.113,0.021l0.113,0.025l0.111,0.026l0.112,0.029l0.111,0.032l0.11,0.034l0.111,0.037
	l0.109,0.038l0.109,0.041l0.109,0.044l0.108,0.046l0.108,0.048l0.108,0.051l0.106,0.052l0.106,0.055l0.105,0.058l0.105,0.059
	l0.104,0.062l0.105,0.064l0.103,0.067l0.104,0.068l0.103,0.071l0.103,0.072l0.101,0.075l0.1,0.077l0.101,0.079l0.1,0.082L19.9,1.579
	l0.098,0.085l0.098,0.087l0.097,0.09l0.096,0.091l0.096,0.094l0.094,0.095l0.095,0.097l0.093,0.1l0.093,0.101l0.091,0.103
	l0.092,0.105l0.091,0.107l0.089,0.109l0.089,0.111l0.087,0.112l0.087,0.114l0.087,0.116l0.085,0.118l0.085,0.12l0.083,0.122
	l0.083,0.123l0.082,0.125L21.97,4.03l0.08,0.129l0.08,0.13l0.078,0.131l0.078,0.134l0.077,0.135l0.076,0.136l0.074,0.138l0.074,0.14
	l0.073,0.141l0.072,0.143l0.07,0.145l0.07,0.146l0.07,0.147l0.067,0.149l0.067,0.15l0.067,0.152l0.064,0.153l0.064,0.155
	l0.063,0.156l0.062,0.158l0.061,0.159l0.06,0.16l0.06,0.162l0.058,0.163l0.058,0.164l0.056,0.166l0.055,0.167l0.055,0.168
	l0.052,0.169l0.051,0.171l0.051,0.172l0.05,0.173l0.048,0.174l0.047,0.175l0.045,0.177l0.045,0.178l0.043,0.179l0.042,0.18
	l0.041,0.181l0.04,0.182l0.039,0.183l0.037,0.184l0.036,0.186l0.034,0.186l0.033,0.187l0.032,0.189l0.031,0.189l0.029,0.19
	l0.028,0.191l0.028,0.192l0.024,0.193l0.025,0.194l0.023,0.195l0.021,0.196l0.021,0.196l0.019,0.198l0.018,0.198l0.018,0.199
	l0.015,0.199l0.014,0.201l0.012,0.201l0.011,0.202l0.01,0.203l0.009,0.203l0.006,0.204l0.005,0.205l0.004,0.205l0.002,0.206L25,16
	l-0.001,0.207l-0.002,0.206l-0.004,0.205l-0.005,0.205l-0.006,0.204l-0.009,0.203l-0.01,0.202l-0.011,0.202l-0.012,0.201
	l-0.014,0.201l-0.015,0.199l-0.018,0.198l-0.018,0.198l-0.019,0.198l-0.021,0.196l-0.021,0.195l-0.023,0.195l-0.025,0.194
	l-0.024,0.192l-0.028,0.192l-0.028,0.19l-0.029,0.19l-0.031,0.189l-0.032,0.188l-0.033,0.188l-0.034,0.186l-0.036,0.187
	l-0.037,0.184l-0.039,0.183l-0.04,0.183l-0.041,0.181l-0.042,0.18l-0.043,0.18l-0.045,0.178l-0.045,0.177l-0.047,0.175l-0.048,0.175
	l-0.05,0.173l-0.051,0.172l-0.051,0.171l-0.052,0.169l-0.055,0.168l-0.055,0.167l-0.056,0.166l-0.058,0.164l-0.058,0.163
	l-0.06,0.162l-0.06,0.16l-0.061,0.158l-0.062,0.158l-0.063,0.156l-0.064,0.155l-0.064,0.152l-0.067,0.152l-0.067,0.15l-0.067,0.148
	l-0.07,0.147l-0.07,0.146l-0.07,0.146l-0.072,0.143l-0.073,0.142l-0.074,0.14l-0.074,0.138l-0.076,0.136l-0.077,0.136l-0.078,0.134
	l-0.078,0.131l-0.08,0.13l-0.08,0.129l-0.082,0.126l-0.082,0.125l-0.083,0.123l-0.083,0.122l-0.085,0.12l-0.085,0.118l-0.087,0.116
	l-0.087,0.113l-0.087,0.112l-0.089,0.111l-0.089,0.108l-0.091,0.107l-0.092,0.104l-0.091,0.104l-0.093,0.101l-0.093,0.101
	l-0.095,0.097l-0.094,0.095l-0.096,0.095l-0.096,0.091l-0.097,0.09l-0.098,0.087L19.9,30.421l-0.099,0.083l-0.1,0.082l-0.101,0.079
	l-0.1,0.077l-0.101,0.075l-0.103,0.071l-0.103,0.071l-0.104,0.068l-0.103,0.066l-0.105,0.064l-0.104,0.062l-0.105,0.06l-0.105,0.058
	l-0.106,0.055l-0.106,0.053l-0.108,0.051l-0.108,0.048l-0.108,0.046l-0.109,0.044l-0.109,0.041l-0.109,0.038l-0.111,0.037
	l-0.11,0.034l-0.111,0.032l-0.112,0.028l-0.111,0.026l-0.113,0.025l-0.113,0.021l-0.114,0.021l-0.113,0.016l-0.114,0.015
	l-0.115,0.011l-0.115,0.01l-0.115,0.007l-0.116,0.004L16,32l-0.116-0.001l-0.116-0.004l-0.116-0.007l-0.115-0.01l-0.115-0.011
	l-0.114-0.015l-0.114-0.016l-0.114-0.021l-0.113-0.021l-0.113-0.025l-0.112-0.026l-0.112-0.028l-0.111-0.032l-0.111-0.034
	l-0.111-0.037l-0.11-0.038l-0.109-0.041l-0.109-0.044l-0.109-0.046l-0.108-0.048l-0.108-0.051l-0.107-0.053l-0.106-0.055
	l-0.106-0.058l-0.105-0.06l-0.105-0.062l-0.105-0.064l-0.103-0.066l-0.103-0.068l-0.103-0.071l-0.102-0.071l-0.101-0.075l-0.1-0.077
	l-0.1-0.079l-0.1-0.082L12.1,30.421l-0.098-0.085l-0.098-0.087l-0.096-0.09l-0.096-0.091l-0.096-0.095l-0.094-0.095l-0.094-0.097
	l-0.093-0.101l-0.093-0.101l-0.091-0.104l-0.091-0.104l-0.091-0.107l-0.089-0.108l-0.089-0.111l-0.087-0.112l-0.087-0.113
	l-0.087-0.116l-0.085-0.118l-0.085-0.12l-0.083-0.122l-0.083-0.123l-0.082-0.125L10.03,27.97l-0.08-0.129l-0.08-0.13L9.792,27.58
	l-0.078-0.134l-0.077-0.136l-0.076-0.136l-0.075-0.138l-0.074-0.14l-0.073-0.142l-0.072-0.143l-0.071-0.146l-0.07-0.146l-0.07-0.147
	l-0.068-0.148l-0.067-0.15l-0.067-0.152l-0.065-0.152l-0.064-0.155L8.661,25.26l-0.062-0.158l-0.061-0.158l-0.06-0.16l-0.059-0.162
	l-0.058-0.163l-0.057-0.164l-0.056-0.166l-0.055-0.167l-0.054-0.168l-0.052-0.169l-0.051-0.171l-0.051-0.172l-0.049-0.173
	l-0.048-0.175l-0.047-0.175l-0.045-0.177l-0.045-0.178l-0.043-0.18l-0.042-0.18l-0.041-0.181l-0.04-0.183l-0.039-0.183l-0.037-0.184
	l-0.036-0.187l-0.035-0.186l-0.033-0.188l-0.032-0.188l-0.031-0.189l-0.03-0.19l-0.028-0.19l-0.028-0.192l-0.025-0.192l-0.025-0.194
	l-0.023-0.195l-0.022-0.195l-0.02-0.196l-0.019-0.198l-0.018-0.198l-0.017-0.198l-0.015-0.199l-0.013-0.201l-0.012-0.201
	l-0.011-0.202l-0.01-0.202l-0.008-0.203l-0.006-0.204l-0.005-0.205l-0.004-0.205l-0.002-0.206L7,16l0.001-0.207l0.002-0.206
	l0.004-0.205l0.005-0.205l0.006-0.204l0.008-0.203l0.01-0.203l0.011-0.202l0.012-0.201l0.013-0.201l0.015-0.199l0.017-0.199
	l0.018-0.198l0.019-0.198l0.02-0.196l0.022-0.196l0.023-0.195l0.025-0.194l0.025-0.193l0.028-0.192l0.028-0.191l0.03-0.19
	l0.031-0.189l0.032-0.189l0.033-0.187l0.035-0.186l0.036-0.186l0.037-0.184l0.039-0.183l0.04-0.182l0.041-0.181l0.042-0.18
	l0.043-0.179l0.045-0.178l0.045-0.177l0.047-0.175l0.048-0.174l0.049-0.173l0.051-0.172l0.051-0.171l0.052-0.169l0.054-0.168
	l0.055-0.167l0.056-0.166l0.057-0.164l0.058-0.163l0.059-0.162l0.06-0.16l0.061-0.159L8.661,6.74l0.064-0.156l0.064-0.155
	l0.065-0.153l0.067-0.152l0.067-0.15l0.068-0.149l0.07-0.147l0.07-0.146l0.071-0.145l0.072-0.143l0.073-0.141l0.074-0.14
	l0.075-0.138l0.076-0.136l0.077-0.135L9.792,4.42L9.87,4.289l0.08-0.13l0.08-0.129l0.082-0.126l0.082-0.125l0.083-0.123l0.083-0.122
	l0.085-0.12l0.085-0.118l0.087-0.116l0.087-0.114l0.087-0.112l0.089-0.111l0.089-0.109l0.091-0.107l0.091-0.105l0.091-0.103
	l0.093-0.101l0.093-0.1l0.094-0.097l0.094-0.095l0.096-0.094l0.096-0.091l0.096-0.09l0.098-0.087L12.1,1.579l0.098-0.083l0.1-0.082
	l0.1-0.079l0.1-0.077l0.101-0.075l0.102-0.072l0.103-0.071l0.103-0.068l0.103-0.067l0.105-0.064l0.105-0.062l0.105-0.059
	l0.106-0.058l0.106-0.055l0.107-0.052l0.108-0.051l0.108-0.048l0.109-0.046l0.109-0.044l0.109-0.041l0.11-0.038l0.111-0.037
	l0.111-0.034l0.111-0.032l0.112-0.029l0.112-0.026l0.113-0.025l0.113-0.021l0.114-0.02l0.114-0.016l0.114-0.015l0.115-0.011
	l0.115-0.009l0.116-0.007l0.116-0.004L16,0L16.116,0.001L16.116,0.001z M15.929,2.001l-0.071,0.002l-0.071,0.004l-0.07,0.006
	l-0.07,0.007l-0.071,0.009l-0.07,0.01l-0.07,0.012l-0.07,0.013l-0.07,0.015l-0.071,0.017l-0.07,0.019l-0.071,0.02l-0.07,0.021
	L14.943,2.18l-0.071,0.025L14.8,2.232L14.728,2.26l-0.071,0.03l-0.073,0.033l-0.072,0.034l-0.073,0.036L14.366,2.43l-0.073,0.04
	L14.22,2.511l-0.074,0.044L14.073,2.6l-0.074,0.047l-0.075,0.05L13.85,2.748l-0.075,0.053l-0.074,0.055l-0.075,0.058l-0.075,0.059
	l-0.075,0.061l-0.075,0.063l-0.075,0.066L13.251,3.23l-0.075,0.069l-0.075,0.072l-0.075,0.073l-0.074,0.075l-0.075,0.078
	l-0.074,0.079l-0.075,0.082l-0.074,0.083L12.58,3.926l-0.073,0.088l-0.074,0.089L12.36,4.194l-0.072,0.093l-0.073,0.095
	l-0.072,0.097l-0.072,0.099L12,4.679l-0.071,0.103l-0.07,0.104l-0.07,0.107L11.72,5.101l-0.069,0.11l-0.069,0.112l-0.068,0.114
	l-0.067,0.115L11.38,5.669l-0.066,0.119l-0.065,0.121l-0.065,0.122L11.12,6.155L11.056,6.28l-0.062,0.128l-0.062,0.129l-0.062,0.13
	l-0.06,0.132l-0.06,0.134l-0.059,0.135l-0.059,0.137l-0.057,0.139l-0.057,0.139l-0.056,0.142l-0.055,0.143l-0.054,0.144L10.3,8.058
	l-0.052,0.147l-0.052,0.148l-0.05,0.15l-0.05,0.151l-0.049,0.153L10,8.961L9.953,9.116L9.907,9.273L9.862,9.43L9.818,9.589
	L9.776,9.75L9.734,9.911l-0.041,0.163l-0.04,0.164l-0.038,0.165l-0.038,0.166l-0.036,0.167l-0.036,0.169l-0.034,0.169l-0.033,0.171
	l-0.032,0.172l-0.031,0.172l-0.03,0.174l-0.028,0.175l-0.028,0.175L9.263,12.29l-0.025,0.178l-0.024,0.178l-0.023,0.18l-0.021,0.18
	l-0.02,0.181l-0.019,0.182l-0.018,0.183l-0.017,0.184l-0.015,0.185l-0.014,0.185l-0.012,0.186l-0.012,0.187l-0.01,0.188
	l-0.009,0.188l-0.007,0.189l-0.006,0.19l-0.005,0.191l-0.003,0.191l-0.002,0.192L9,16l0.001,0.191l0.002,0.192l0.003,0.191
	l0.005,0.19l0.006,0.19l0.007,0.188l0.009,0.188l0.01,0.188l0.012,0.188l0.012,0.186l0.014,0.186l0.015,0.185l0.017,0.185
	l0.018,0.183l0.019,0.182l0.02,0.182l0.021,0.18l0.023,0.18l0.024,0.179l0.025,0.178l0.026,0.177l0.028,0.175l0.028,0.176
	l0.03,0.174l0.031,0.172l0.032,0.172l0.033,0.171l0.034,0.169l0.036,0.169l0.036,0.167l0.038,0.166l0.038,0.165l0.04,0.164
	l0.041,0.163l0.042,0.161l0.042,0.161l0.044,0.159l0.045,0.156l0.046,0.157L10,23.039l0.047,0.154l0.049,0.152l0.05,0.151
	l0.05,0.149l0.052,0.148l0.052,0.147l0.053,0.146l0.054,0.145l0.055,0.143l0.056,0.142l0.057,0.14l0.057,0.139l0.059,0.137
	l0.059,0.136l0.06,0.134l0.06,0.132l0.062,0.13l0.062,0.129l0.062,0.128l0.064,0.125l0.064,0.124l0.065,0.122l0.065,0.121
	l0.066,0.119l0.067,0.117l0.067,0.114l0.068,0.114l0.069,0.112l0.069,0.11l0.069,0.107l0.07,0.107l0.07,0.104L12,27.321l0.071,0.101
	l0.072,0.1l0.072,0.097l0.072,0.095l0.073,0.093l0.073,0.091l0.074,0.09l0.073,0.088l0.074,0.085l0.074,0.083l0.075,0.082
	l0.074,0.079l0.075,0.078l0.074,0.074l0.075,0.073l0.075,0.072l0.075,0.068l0.075,0.067l0.075,0.066l0.075,0.062l0.075,0.062
	l0.075,0.059l0.075,0.058l0.074,0.056l0.075,0.053l0.074,0.051l0.075,0.05l0.074,0.048l0.073,0.045l0.074,0.044l0.073,0.041
	l0.073,0.04l0.073,0.037l0.073,0.035l0.072,0.034l0.073,0.033l0.071,0.03l0.072,0.027l0.072,0.027l0.071,0.025l0.071,0.023
	l0.07,0.021l0.071,0.02l0.07,0.02l0.071,0.017l0.07,0.015l0.07,0.014l0.07,0.012l0.07,0.01l0.071,0.01l0.07,0.007l0.07,0.006
	l0.071,0.004l0.071,0.002L16,30l0.071-0.001l0.07-0.002l0.071-0.004l0.07-0.006l0.069-0.007l0.071-0.01l0.07-0.01l0.07-0.012
	l0.069-0.014l0.07-0.015l0.071-0.017l0.069-0.02l0.071-0.02l0.07-0.021l0.07-0.023l0.071-0.025l0.072-0.027l0.072-0.027l0.07-0.03
	l0.073-0.033l0.072-0.034l0.072-0.035l0.073-0.037l0.073-0.04l0.073-0.041l0.073-0.044l0.073-0.045l0.074-0.048l0.075-0.05
	l0.074-0.051l0.074-0.053l0.074-0.056l0.075-0.058l0.075-0.059l0.075-0.062l0.074-0.062l0.075-0.066l0.075-0.067l0.075-0.068
	l0.075-0.072l0.074-0.073l0.074-0.074l0.075-0.078l0.074-0.079l0.075-0.082l0.073-0.083l0.074-0.085l0.073-0.088l0.074-0.09
	l0.072-0.091l0.073-0.093l0.072-0.095l0.072-0.097l0.071-0.1L20,27.321l0.071-0.104l0.069-0.104l0.07-0.107l0.069-0.107l0.068-0.11
	l0.069-0.112l0.068-0.114l0.066-0.114l0.067-0.117l0.065-0.119l0.065-0.121l0.065-0.122l0.063-0.124l0.064-0.125l0.062-0.128
	l0.062-0.129l0.062-0.13l0.061-0.132l0.06-0.134l0.059-0.136l0.06-0.137l0.057-0.139l0.058-0.14l0.056-0.142l0.055-0.143
	l0.054-0.145l0.054-0.146l0.052-0.147l0.052-0.148l0.05-0.149l0.051-0.151l0.049-0.152L22,23.039l0.047-0.155l0.046-0.157
	l0.045-0.156l0.044-0.159l0.042-0.161l0.042-0.161l0.041-0.163l0.04-0.164l0.038-0.165l0.038-0.166l0.036-0.167l0.036-0.169
	l0.034-0.169l0.032-0.171l0.032-0.172l0.031-0.172l0.03-0.174l0.027-0.176l0.028-0.175l0.026-0.177l0.024-0.178l0.024-0.179
	l0.022-0.18l0.021-0.18l0.02-0.182l0.02-0.182l0.018-0.183l0.018-0.185l0.015-0.185l0.014-0.186l0.013-0.186l0.012-0.188l0.01-0.188
	l0.009-0.188l0.008-0.188l0.006-0.19l0.005-0.19l0.003-0.191l0.002-0.192L23,16l-0.001-0.192l-0.002-0.192l-0.003-0.191
	l-0.005-0.191l-0.006-0.19l-0.008-0.189l-0.009-0.188l-0.01-0.188l-0.012-0.187l-0.013-0.186l-0.014-0.185l-0.015-0.185
	l-0.018-0.184l-0.018-0.183l-0.02-0.182l-0.02-0.181l-0.021-0.18l-0.022-0.18l-0.024-0.178l-0.024-0.178l-0.026-0.177l-0.028-0.175
	l-0.027-0.175l-0.03-0.174l-0.031-0.172l-0.032-0.172l-0.032-0.171l-0.034-0.169l-0.036-0.169l-0.036-0.167l-0.038-0.166
	l-0.038-0.165l-0.04-0.164l-0.041-0.163L22.224,9.75l-0.042-0.161L22.138,9.43l-0.045-0.157l-0.046-0.157L22,8.961l-0.047-0.154
	l-0.049-0.153l-0.051-0.151l-0.05-0.15l-0.052-0.148L21.7,8.058l-0.054-0.146l-0.054-0.144l-0.055-0.143l-0.056-0.142l-0.058-0.139
	l-0.057-0.139l-0.06-0.137L21.25,6.933l-0.06-0.134L21.13,6.667l-0.062-0.13l-0.062-0.129L20.944,6.28L20.88,6.155l-0.063-0.124
	l-0.065-0.122l-0.065-0.121L20.62,5.669l-0.067-0.117l-0.066-0.115l-0.068-0.114l-0.069-0.112l-0.068-0.11l-0.069-0.108l-0.07-0.107
	l-0.069-0.104L20,4.679l-0.071-0.101l-0.071-0.099l-0.072-0.097l-0.073-0.095L19.64,4.194l-0.072-0.091l-0.074-0.089L19.42,3.926
	l-0.074-0.085l-0.073-0.083l-0.075-0.082l-0.074-0.079l-0.075-0.078l-0.074-0.075l-0.074-0.073l-0.075-0.072L18.749,3.23
	l-0.075-0.067l-0.075-0.066l-0.074-0.063l-0.075-0.061l-0.075-0.059l-0.075-0.058l-0.074-0.055L18.15,2.748l-0.074-0.051
	l-0.075-0.05L17.927,2.6l-0.073-0.045L17.78,2.511L17.707,2.47l-0.073-0.04l-0.073-0.037l-0.072-0.036l-0.072-0.034L17.343,2.29
	l-0.07-0.03L17.2,2.232l-0.072-0.027L17.057,2.18l-0.07-0.024l-0.07-0.021l-0.071-0.02l-0.069-0.019l-0.071-0.017l-0.07-0.015
	l-0.069-0.013l-0.07-0.012l-0.07-0.01L16.353,2.02l-0.069-0.007l-0.07-0.006l-0.071-0.004l-0.07-0.002L16,2L15.929,2.001
	L15.929,2.001z"/>
<line id="equator" fill="none" stroke="#000000" stroke-width="2" stroke-linejoin="round" stroke-miterlimit="10" x1="1" y1="16" x2="31" y2="16"/>
<path id="southernLatitude" fill-rule="evenodd" clip-rule="evenodd" d="M16.116,0l0.115,0.002l0.114,0.002l0.115,0.003l0.115,0.003
	l0.115,0.005l0.113,0.005l0.114,0.006l0.114,0.007l0.113,0.008l0.114,0.008l0.113,0.009l0.113,0.01L17.6,0.079l0.113,0.012
	l0.112,0.012l0.112,0.013l0.111,0.014l0.112,0.015l0.112,0.015l0.11,0.016l0.111,0.017l0.111,0.018l0.109,0.019l0.11,0.019
	l0.109,0.02l0.11,0.021l0.109,0.021l0.109,0.022l0.108,0.023l0.109,0.024l0.107,0.024l0.109,0.026l0.106,0.026l0.108,0.026
	l0.106,0.028l0.107,0.028l0.107,0.028l0.105,0.03l0.106,0.03l0.105,0.031l0.105,0.032l0.104,0.032l0.105,0.033l0.104,0.034
	l0.104,0.034l0.104,0.035l0.104,0.036l0.103,0.037l0.104,0.037l0.103,0.038l0.103,0.038l0.102,0.04l0.103,0.039l0.201,0.082
	l0.2,0.085l0.2,0.087l0.198,0.09l0.195,0.092l0.195,0.095l0.194,0.097l0.191,0.1l0.19,0.103l0.189,0.105l0.188,0.107l0.185,0.11
	l0.185,0.112l0.183,0.115l0.182,0.117l0.179,0.12l0.177,0.121l0.176,0.125l0.175,0.126l0.172,0.129l0.17,0.131l0.169,0.133
	l0.167,0.135l0.165,0.138l0.163,0.139l0.161,0.142l0.158,0.144l0.157,0.146l0.155,0.148l0.153,0.15l0.151,0.152l0.149,0.154
	l0.146,0.157l0.146,0.158l0.143,0.16l0.142,0.162l0.138,0.164l-0.133,0.096l-0.137,0.095l-0.138,0.093l-0.14,0.093l-0.144,0.092
	l-0.145,0.09l-0.147,0.089L27.157,6.49l-0.152,0.087l-0.154,0.085l-0.155,0.085L26.537,6.83l-0.16,0.082l-0.162,0.081l-0.165,0.08
	l-0.166,0.078l-0.168,0.077l-0.171,0.076l-0.172,0.074l-0.174,0.074l-0.176,0.071l-0.179,0.071l-0.18,0.069L24.483,7.73L24.3,7.797
	l-0.186,0.064l-0.188,0.064l-0.188,0.062l-0.19,0.06l-0.191,0.059l-0.194,0.058L22.967,8.22L22.77,8.275l-0.198,0.053l-0.2,0.051
	l-0.202,0.05l-0.203,0.049l-0.205,0.046L21.555,8.57l-0.208,0.043l-0.209,0.042l-0.21,0.041l-0.212,0.038l-0.213,0.037l-0.214,0.036
	L20.073,8.84l-0.217,0.032l-0.219,0.031l-0.219,0.028l-0.221,0.027l-0.222,0.025l-0.223,0.024L18.53,9.028l-0.226,0.02l-0.226,0.018
	l-0.229,0.016l-0.228,0.014l-0.229,0.012l-0.229,0.011l-0.231,0.008l-0.231,0.007l-0.233,0.005l-0.232,0.003L16,9.143l-0.235-0.001
	l-0.233-0.003l-0.233-0.005l-0.232-0.007l-0.231-0.008l-0.23-0.011l-0.229-0.012l-0.228-0.014l-0.228-0.016l-0.226-0.018
	l-0.225-0.02l-0.224-0.021l-0.223-0.024l-0.221-0.025l-0.221-0.027l-0.219-0.028l-0.218-0.031L11.927,8.84l-0.216-0.033
	l-0.214-0.036l-0.213-0.037l-0.212-0.038l-0.21-0.041l-0.209-0.042L10.445,8.57l-0.206-0.046l-0.205-0.046L9.831,8.429l-0.202-0.05
	l-0.2-0.051L9.23,8.275L9.033,8.22L8.838,8.164L8.644,8.106L8.452,8.047l-0.19-0.06L8.073,7.925L7.886,7.861L7.7,7.797L7.517,7.73
	L7.335,7.663l-0.18-0.069L6.977,7.523L6.801,7.452L6.627,7.378L6.455,7.304L6.284,7.228L6.116,7.151L5.95,7.073l-0.165-0.08
	L5.623,6.912L5.463,6.83L5.305,6.747L5.149,6.662L4.995,6.577L4.843,6.49L4.694,6.401L4.547,6.312l-0.145-0.09L4.259,6.13
	l-0.14-0.093L3.981,5.944L3.845,5.849L3.712,5.753L3.85,5.589l0.141-0.162l0.143-0.16l0.145-0.158l0.147-0.157l0.149-0.154
	l0.152-0.152l0.153-0.15l0.155-0.148l0.157-0.146l0.159-0.144l0.161-0.142l0.163-0.139L5.84,3.639l0.167-0.135l0.169-0.133
	l0.17-0.131l0.172-0.129l0.174-0.126L6.868,2.86l0.177-0.121l0.179-0.12l0.181-0.117l0.183-0.115l0.184-0.112l0.185-0.11
	l0.188-0.107l0.189-0.105l0.19-0.103l0.192-0.1L8.91,1.653l0.195-0.095l0.196-0.092l0.198-0.09l0.199-0.087l0.201-0.085l0.202-0.082
	l0.102-0.039l0.102-0.04l0.102-0.038l0.103-0.038l0.103-0.037l0.103-0.037l0.103-0.036l0.104-0.035l0.104-0.034l0.105-0.034
	l0.105-0.033l0.105-0.032l0.105-0.032l0.106-0.031l0.106-0.03l0.106-0.03l0.107-0.028l0.107-0.028l0.107-0.028l0.108-0.026
	l0.107-0.026l0.108-0.026l0.109-0.024l0.108-0.024l0.109-0.023l0.11-0.022l0.109-0.021l0.11-0.021l0.11-0.02l0.11-0.019l0.11-0.019
	l0.111-0.018l0.111-0.017l0.111-0.016l0.112-0.015L13.95,0.13l0.112-0.014l0.113-0.013l0.112-0.012L14.4,0.079l0.113-0.011
	l0.113-0.01l0.113-0.009l0.114-0.008l0.113-0.008l0.114-0.007l0.115-0.006l0.114-0.005l0.115-0.005l0.115-0.003l0.115-0.003
	l0.115-0.002L15.884,0H16H16.116L16.116,0z M15.898,2l-0.101,0.001l-0.101,0.002l-0.101,0.003l-0.101,0.003l-0.1,0.004l-0.1,0.004
	l-0.1,0.006l-0.1,0.006l-0.1,0.007l-0.099,0.007l-0.1,0.008L14.696,2.06l-0.099,0.009l-0.098,0.01L14.4,2.09l-0.098,0.012
	l-0.098,0.012l-0.098,0.013L14.009,2.14l-0.097,0.014l-0.098,0.015l-0.096,0.016l-0.097,0.016l-0.096,0.017l-0.097,0.017
	l-0.096,0.018l-0.095,0.019l-0.096,0.02l-0.095,0.02l-0.095,0.021l-0.095,0.021l-0.094,0.022l-0.094,0.023l-0.094,0.023L12.48,2.446
	L12.387,2.47l-0.094,0.025L12.2,2.521l-0.092,0.027l-0.093,0.027l-0.092,0.027l-0.092,0.029L11.74,2.659l-0.092,0.03l-0.091,0.03
	l-0.09,0.031l-0.091,0.031l-0.09,0.032l-0.09,0.032l-0.09,0.034l-0.089,0.033l-0.089,0.035L10.842,2.98l-0.18,0.073l-0.175,0.074
	l-0.174,0.076L10.14,3.281L9.968,3.362L9.797,3.445L9.628,3.53L9.46,3.618l-0.167,0.09L9.128,3.799L8.964,3.893L8.802,3.99
	L8.641,4.088l-0.16,0.1L8.323,4.291L8.166,4.395L8.011,4.502L7.857,4.61L7.705,4.721L7.554,4.834L7.405,4.948L7.257,5.065
	L7.111,5.183L6.967,5.304L6.939,5.328l0.019,0.009l0.149,0.068l0.151,0.067l0.153,0.066l0.155,0.065l0.157,0.064L7.882,5.73
	l0.161,0.062l0.163,0.061L8.37,5.912l0.167,0.059l0.169,0.057l0.17,0.056l0.173,0.054l0.174,0.054l0.176,0.052l0.177,0.051
	l0.179,0.05l0.181,0.048l0.183,0.047l0.184,0.046l0.186,0.044l0.187,0.043l0.189,0.041l0.19,0.04l0.192,0.039L11.44,6.73
	l0.195,0.035L11.831,6.8l0.197,0.032l0.199,0.031l0.2,0.03l0.201,0.028l0.203,0.026l0.204,0.025l0.205,0.023l0.206,0.021l0.207,0.02
	l0.208,0.019l0.21,0.016l0.21,0.015l0.212,0.013l0.212,0.012l0.214,0.01l0.214,0.008l0.216,0.006l0.216,0.004l0.217,0.003L16,7.143
	l0.218-0.001l0.217-0.003l0.217-0.004l0.216-0.006l0.214-0.008l0.214-0.01l0.212-0.012l0.212-0.013l0.21-0.015l0.21-0.016
	l0.208-0.019l0.207-0.02l0.206-0.021l0.205-0.023l0.204-0.025l0.203-0.026l0.201-0.028l0.2-0.03l0.198-0.031L20.169,6.8l0.196-0.035
	L20.56,6.73l0.193-0.037l0.192-0.039l0.189-0.04l0.189-0.041l0.187-0.043l0.187-0.044l0.184-0.046l0.184-0.047l0.181-0.048
	l0.179-0.05l0.177-0.051l0.177-0.052l0.174-0.054l0.173-0.054l0.17-0.056l0.169-0.057l0.167-0.059l0.164-0.059l0.163-0.061
	l0.161-0.062l0.159-0.063l0.156-0.064l0.155-0.065l0.153-0.066l0.15-0.067l0.149-0.068l0.019-0.009l-0.027-0.024l-0.145-0.121
	l-0.146-0.118l-0.148-0.117l-0.148-0.114l-0.151-0.113L24.143,4.61l-0.153-0.108l-0.155-0.107l-0.157-0.104l-0.158-0.103l-0.159-0.1
	L23.198,3.99l-0.162-0.097l-0.164-0.094l-0.165-0.091l-0.167-0.09L22.372,3.53l-0.169-0.085l-0.171-0.083L21.86,3.281l-0.173-0.078
	l-0.175-0.076l-0.175-0.074l-0.18-0.073l-0.086-0.033l-0.089-0.035l-0.09-0.033l-0.09-0.034l-0.09-0.032l-0.09-0.032L20.533,2.75
	l-0.09-0.031l-0.092-0.03l-0.092-0.03l-0.091-0.028l-0.092-0.029l-0.092-0.027l-0.094-0.027l-0.093-0.027l-0.092-0.026L19.613,2.47
	L19.52,2.446l-0.094-0.024l-0.094-0.023l-0.094-0.023l-0.096-0.022l-0.094-0.021l-0.095-0.021l-0.095-0.02l-0.097-0.02l-0.096-0.019
	l-0.095-0.018l-0.098-0.017l-0.096-0.017l-0.097-0.016l-0.097-0.016l-0.098-0.015L17.991,2.14l-0.098-0.013l-0.098-0.013
	l-0.098-0.012L17.6,2.09l-0.099-0.011l-0.098-0.01l-0.1-0.009l-0.099-0.009l-0.1-0.008l-0.1-0.007l-0.1-0.007l-0.101-0.006
	l-0.1-0.006l-0.1-0.004l-0.102-0.004l-0.1-0.003l-0.102-0.003l-0.101-0.002L16.101,2H16H15.898L15.898,2z"/>
<path id="northernLatitude" fill-rule="evenodd" clip-rule="evenodd" d="M16.235,22.858l0.232,0.003l0.233,0.005l0.231,0.007
	l0.231,0.008l0.229,0.011l0.229,0.013l0.228,0.014l0.229,0.016l0.226,0.019l0.226,0.02l0.224,0.021l0.223,0.023l0.222,0.025
	l0.221,0.027l0.219,0.027l0.219,0.031l0.217,0.032l0.216,0.033l0.214,0.035l0.213,0.037l0.212,0.038l0.21,0.041l0.209,0.042
	l0.208,0.043l0.206,0.046l0.205,0.047l0.203,0.049l0.202,0.05l0.2,0.051l0.198,0.053l0.197,0.056l0.195,0.056l0.194,0.058
	l0.191,0.06l0.19,0.06l0.188,0.062l0.188,0.063l0.186,0.064l0.184,0.066l0.182,0.067l0.18,0.069l0.179,0.07l0.176,0.071l0.174,0.074
	l0.172,0.074l0.171,0.075l0.168,0.077l0.166,0.078l0.165,0.08l0.162,0.081l0.16,0.082l0.158,0.083l0.155,0.085l0.154,0.085
	l0.152,0.087l0.148,0.089l0.147,0.089l0.145,0.091l0.144,0.092l0.14,0.093l0.138,0.093l0.137,0.096l0.133,0.096l-0.138,0.164
	l-0.142,0.162l-0.143,0.16l-0.146,0.157l-0.146,0.157l-0.149,0.154l-0.151,0.151l-0.153,0.15l-0.155,0.148l-0.157,0.146
	l-0.158,0.145l-0.161,0.142l-0.163,0.139l-0.165,0.139l-0.167,0.135l-0.169,0.133l-0.17,0.131l-0.172,0.129l-0.175,0.126
	l-0.176,0.125l-0.177,0.121l-0.179,0.12l-0.182,0.117l-0.183,0.115l-0.185,0.111l-0.185,0.11l-0.188,0.107l-0.189,0.104l-0.19,0.104
	l-0.191,0.1l-0.194,0.097l-0.195,0.096l-0.195,0.092l-0.198,0.09l-0.2,0.087l-0.2,0.085l-0.201,0.082l-0.103,0.039l-0.102,0.04
	l-0.103,0.038l-0.103,0.038l-0.104,0.037l-0.103,0.037l-0.104,0.035l-0.104,0.035l-0.104,0.034l-0.104,0.034l-0.105,0.033
	l-0.104,0.031l-0.105,0.032l-0.105,0.031l-0.106,0.03l-0.105,0.029l-0.107,0.028l-0.107,0.028l-0.106,0.027l-0.108,0.026
	l-0.106,0.026l-0.109,0.025l-0.107,0.024l-0.109,0.023l-0.108,0.023l-0.109,0.022l-0.109,0.021l-0.11,0.021l-0.109,0.02l-0.11,0.019
	l-0.109,0.02l-0.111,0.018l-0.111,0.018l-0.11,0.016l-0.112,0.016l-0.112,0.015l-0.111,0.014l-0.112,0.013l-0.112,0.013L17.6,31.921
	l-0.112,0.011l-0.113,0.011l-0.113,0.009l-0.114,0.008l-0.113,0.008l-0.114,0.007l-0.114,0.007l-0.113,0.005l-0.115,0.005
	l-0.115,0.003l-0.115,0.003l-0.114,0.002L16.116,32H16h-0.116l-0.115-0.002l-0.115-0.002l-0.115-0.003l-0.115-0.003l-0.115-0.005
	l-0.114-0.005l-0.115-0.007l-0.114-0.007l-0.113-0.008l-0.114-0.008l-0.113-0.009l-0.113-0.011L14.4,31.921l-0.113-0.012
	l-0.112-0.013l-0.113-0.013L13.95,31.87l-0.111-0.015l-0.112-0.016l-0.111-0.016l-0.111-0.018l-0.111-0.018l-0.11-0.02l-0.11-0.019
	l-0.11-0.02l-0.11-0.021l-0.109-0.021l-0.11-0.022l-0.109-0.023l-0.108-0.023l-0.109-0.024l-0.108-0.025l-0.107-0.026l-0.108-0.026
	l-0.107-0.027l-0.107-0.028l-0.107-0.028l-0.106-0.029l-0.106-0.03l-0.106-0.031l-0.105-0.032l-0.105-0.031l-0.105-0.033
	l-0.105-0.034l-0.104-0.034l-0.104-0.035l-0.103-0.035l-0.103-0.037l-0.103-0.037l-0.103-0.038l-0.102-0.038l-0.102-0.04
	l-0.102-0.039l-0.202-0.082l-0.201-0.085l-0.199-0.087l-0.198-0.09l-0.196-0.092L8.91,30.347L8.716,30.25l-0.192-0.1l-0.19-0.104
	l-0.189-0.104l-0.188-0.107l-0.185-0.11l-0.184-0.111l-0.183-0.115l-0.181-0.117l-0.179-0.12L6.868,29.14l-0.176-0.125l-0.174-0.126
	L6.346,28.76l-0.17-0.131l-0.169-0.133L5.84,28.361l-0.165-0.139l-0.163-0.139l-0.161-0.142l-0.159-0.145l-0.157-0.146L4.88,27.504
	l-0.153-0.15l-0.152-0.151l-0.149-0.154l-0.147-0.157l-0.145-0.157l-0.143-0.16L3.85,26.411l-0.138-0.164l0.133-0.096l0.136-0.096
	l0.138-0.093l0.14-0.093l0.143-0.092l0.145-0.091l0.147-0.089l0.149-0.089l0.152-0.087l0.154-0.085l0.156-0.085l0.158-0.083
	l0.16-0.082l0.162-0.081l0.165-0.08l0.166-0.078l0.168-0.077l0.171-0.075l0.172-0.074l0.174-0.074l0.176-0.071l0.178-0.07
	l0.18-0.069l0.182-0.067L7.7,24.203l0.186-0.064l0.187-0.063l0.189-0.062l0.19-0.06l0.192-0.06l0.194-0.058l0.195-0.056l0.197-0.056
	l0.199-0.053l0.2-0.051l0.202-0.05l0.203-0.049l0.205-0.047l0.206-0.046l0.208-0.043l0.209-0.042l0.21-0.041l0.212-0.038
	l0.213-0.037l0.214-0.035l0.216-0.033l0.217-0.032l0.218-0.031l0.219-0.027l0.221-0.027l0.221-0.025l0.223-0.023l0.224-0.021
	l0.225-0.02l0.226-0.019l0.228-0.016l0.228-0.014l0.229-0.013l0.23-0.011l0.231-0.008l0.232-0.007l0.233-0.005l0.233-0.003
	L16,22.857L16.235,22.858L16.235,22.858z M15.782,24.858l-0.217,0.003l-0.216,0.004l-0.216,0.006l-0.214,0.008l-0.214,0.01
	l-0.212,0.013l-0.212,0.013l-0.21,0.015l-0.21,0.017l-0.208,0.019l-0.207,0.021l-0.206,0.021l-0.205,0.023l-0.204,0.024
	l-0.203,0.026l-0.201,0.028l-0.2,0.029l-0.199,0.031L11.831,25.2l-0.196,0.035L11.44,25.27l-0.193,0.037l-0.192,0.039l-0.19,0.04
	l-0.189,0.041l-0.187,0.043l-0.186,0.044l-0.184,0.046l-0.183,0.048l-0.181,0.048l-0.179,0.05l-0.177,0.051l-0.176,0.052
	l-0.174,0.055l-0.173,0.054l-0.17,0.056l-0.169,0.058L8.37,26.088l-0.164,0.06l-0.163,0.061L7.882,26.27l-0.159,0.063l-0.157,0.063
	l-0.155,0.065l-0.153,0.066l-0.151,0.066l-0.149,0.068l-0.019,0.009l0.028,0.024l0.144,0.121l0.146,0.117l0.148,0.117l0.149,0.114
	l0.151,0.113l0.152,0.11l0.154,0.108l0.155,0.107l0.157,0.104l0.158,0.104l0.16,0.1l0.161,0.098l0.162,0.098l0.164,0.094
	l0.165,0.091l0.167,0.09l0.168,0.088l0.169,0.085l0.171,0.083l0.172,0.081l0.173,0.078l0.174,0.076l0.175,0.074l0.18,0.072
	l0.086,0.033l0.089,0.035l0.089,0.033l0.09,0.034l0.09,0.031l0.09,0.032l0.091,0.031l0.09,0.031l0.091,0.029l0.092,0.03l0.091,0.028
	l0.092,0.029l0.092,0.026l0.093,0.027l0.092,0.026l0.093,0.026l0.094,0.025l0.093,0.023l0.094,0.024l0.094,0.022l0.094,0.023
	l0.094,0.022l0.095,0.021l0.095,0.02l0.095,0.021l0.096,0.02l0.095,0.02l0.096,0.018l0.097,0.018l0.096,0.017l0.097,0.017
	l0.096,0.016l0.098,0.015l0.097,0.015l0.097,0.013l0.098,0.013l0.098,0.013L14.4,29.91l0.099,0.011l0.098,0.01l0.099,0.01
	l0.099,0.009l0.1,0.008l0.099,0.007l0.1,0.007l0.1,0.006l0.1,0.007l0.1,0.004l0.101,0.004l0.1,0.003l0.101,0.003l0.101,0.002
	L15.898,30H16h0.101l0.103-0.001l0.101-0.002l0.102-0.003l0.1-0.003l0.102-0.004l0.1-0.004l0.1-0.007l0.101-0.006l0.1-0.007
	l0.1-0.007l0.1-0.008l0.099-0.009l0.1-0.01l0.098-0.01L17.6,29.91l0.099-0.012l0.098-0.013l0.098-0.013l0.098-0.013l0.097-0.015
	l0.098-0.015l0.097-0.016l0.097-0.017l0.096-0.017l0.098-0.018l0.095-0.018l0.096-0.02l0.097-0.02l0.095-0.021l0.095-0.02
	l0.094-0.021l0.096-0.022l0.094-0.023l0.094-0.022l0.094-0.024l0.094-0.023l0.094-0.025l0.092-0.026l0.093-0.026l0.094-0.027
	l0.092-0.026l0.092-0.029l0.091-0.028l0.092-0.03l0.092-0.029l0.09-0.031l0.091-0.031l0.09-0.032l0.09-0.031l0.09-0.034l0.09-0.033
	l0.089-0.035l0.086-0.033l0.18-0.072l0.175-0.074l0.175-0.076l0.173-0.078l0.172-0.081l0.171-0.083l0.169-0.085l0.168-0.088
	l0.167-0.09l0.165-0.091l0.164-0.094l0.162-0.098l0.161-0.098l0.159-0.1l0.158-0.104l0.157-0.104l0.155-0.107l0.153-0.108
	l0.152-0.11l0.151-0.113l0.148-0.114l0.148-0.117l0.146-0.117l0.145-0.121l0.027-0.024l-0.019-0.009l-0.149-0.068l-0.15-0.066
	l-0.153-0.066l-0.155-0.065l-0.156-0.063l-0.159-0.063l-0.161-0.062l-0.163-0.061l-0.164-0.06l-0.167-0.059l-0.169-0.058
	l-0.17-0.056l-0.173-0.054l-0.174-0.055l-0.177-0.052l-0.177-0.051l-0.179-0.05l-0.181-0.048l-0.184-0.048l-0.184-0.046
	l-0.187-0.044l-0.187-0.043l-0.189-0.041l-0.189-0.04l-0.192-0.039L20.56,25.27l-0.194-0.034L20.169,25.2l-0.197-0.032l-0.198-0.031
	l-0.2-0.029l-0.201-0.028l-0.203-0.026l-0.204-0.024l-0.205-0.023l-0.206-0.021l-0.207-0.021l-0.208-0.019l-0.21-0.017l-0.21-0.015
	l-0.212-0.013l-0.212-0.013l-0.214-0.01l-0.214-0.008l-0.216-0.006l-0.217-0.004l-0.217-0.003L16,24.857L15.782,24.858
	L15.782,24.858z"/>
</svg>
