<?xml version="1.0" encoding="utf-8"?>
<!-- Generator: Adobe Illustrator 16.0.4, SVG Export Plug-In . SVG Version: 6.00 Build 0)  -->
<!DOCTYPE svg PUBLIC "-//W3C//DTD SVG 1.1//EN" "http://www.w3.org/Graphics/SVG/1.1/DTD/svg11.dtd" [
	<!ENTITY ns_flows "http://ns.adobe.com/Flows/1.0/">
	<!ENTITY ns_extend "http://ns.adobe.com/Extensibility/1.0/">
	<!ENTITY ns_ai "http://ns.adobe.com/AdobeIllustrator/10.0/">
	<!ENTITY ns_graphs "http://ns.adobe.com/Graphs/1.0/">
]>
<svg version="1.1" id="Inspiring_Online" xmlns:x="&ns_extend;" xmlns:i="&ns_ai;" xmlns:graph="&ns_graphs;"
	 xmlns="http://www.w3.org/2000/svg" xmlns:xlink="http://www.w3.org/1999/xlink" xmlns:a="http://ns.adobe.com/AdobeSVGViewerExtensions/3.0/"
	 x="0px" y="0px" width="32px" height="32px" viewBox="0 0 32 32" enable-background="new 0 0 32 32" xml:space="preserve">
<path id="Globe" fill-rule="evenodd" clip-rule="evenodd" d="M16.207,0.001l0.206,0.004l0.205,0.007l0.205,0.009l0.204,0.011
	l0.203,0.015l0.202,0.016l0.202,0.02l0.201,0.021l0.201,0.025l0.199,0.026l0.198,0.029l0.198,0.032l0.198,0.034l0.196,0.037
	l0.195,0.038l0.195,0.041l0.194,0.044l0.192,0.046l0.192,0.048l0.19,0.051l0.19,0.052l0.189,0.055l0.188,0.058l0.188,0.059
	l0.186,0.062l0.187,0.064l0.184,0.067l0.183,0.068l0.183,0.071l0.181,0.072l0.18,0.075l0.18,0.077l0.178,0.079l0.177,0.082
	l0.175,0.083l0.175,0.085l0.173,0.087l0.172,0.09l0.171,0.091l0.169,0.094l0.168,0.095l0.167,0.097l0.166,0.1l0.164,0.101
	l0.163,0.103l0.162,0.105l0.16,0.107l0.158,0.109l0.158,0.111l0.156,0.112l0.155,0.114l0.152,0.116l0.152,0.118l0.15,0.12
	l0.148,0.122l0.147,0.123l0.146,0.125l0.146,0.126l0.143,0.129l0.141,0.13l0.141,0.131l0.138,0.134l0.136,0.135l0.136,0.136
	l0.134,0.138l0.131,0.14l0.13,0.141l0.129,0.143l0.126,0.145l0.125,0.146l0.123,0.147l0.122,0.149l0.12,0.15l0.118,0.152
	l0.116,0.153l0.113,0.155l0.112,0.156l0.111,0.158l0.108,0.159l0.107,0.16l0.104,0.162l0.104,0.163l0.101,0.164l0.101,0.166
	l0.097,0.167l0.095,0.168l0.095,0.169l0.091,0.171l0.09,0.172l0.087,0.173l0.085,0.174l0.083,0.175l0.082,0.177l0.079,0.178
	l0.077,0.179l0.075,0.18l0.071,0.181l0.071,0.182l0.068,0.183l0.066,0.184l0.064,0.186l0.062,0.186l0.06,0.187l0.058,0.189
	l0.055,0.189l0.053,0.19l0.051,0.191l0.048,0.192l0.046,0.193l0.044,0.194l0.041,0.195l0.038,0.196l0.037,0.196l0.034,0.198
	l0.032,0.198l0.028,0.199l0.026,0.199l0.025,0.201l0.021,0.201l0.02,0.202l0.017,0.203l0.015,0.203l0.011,0.204l0.01,0.205
	l0.007,0.205l0.004,0.206L32,16l-0.001,0.207l-0.004,0.206l-0.007,0.205l-0.01,0.205l-0.011,0.204l-0.015,0.203l-0.017,0.202
	l-0.02,0.202l-0.021,0.201l-0.025,0.201l-0.026,0.199l-0.028,0.198l-0.032,0.198l-0.034,0.198l-0.037,0.196l-0.038,0.195
	l-0.041,0.195l-0.044,0.194l-0.046,0.192l-0.048,0.192l-0.051,0.19l-0.053,0.19l-0.055,0.189l-0.058,0.188l-0.06,0.188l-0.062,0.186
	l-0.064,0.187l-0.066,0.184l-0.068,0.183l-0.071,0.183l-0.071,0.181l-0.075,0.18l-0.077,0.18l-0.079,0.178l-0.082,0.177
	l-0.083,0.175l-0.085,0.175l-0.087,0.173l-0.09,0.172l-0.091,0.171l-0.095,0.169l-0.095,0.168l-0.097,0.167l-0.101,0.166
	l-0.101,0.164l-0.104,0.163l-0.104,0.162l-0.107,0.16l-0.108,0.158l-0.111,0.158l-0.112,0.156l-0.113,0.155l-0.116,0.152
	l-0.118,0.152l-0.12,0.15l-0.122,0.148l-0.123,0.147l-0.125,0.146l-0.126,0.146l-0.129,0.143l-0.13,0.142l-0.131,0.14l-0.134,0.138
	l-0.136,0.136l-0.136,0.136l-0.138,0.134l-0.141,0.131l-0.141,0.13l-0.143,0.129l-0.146,0.126l-0.146,0.125l-0.147,0.123
	l-0.148,0.122l-0.15,0.12l-0.152,0.118l-0.152,0.116l-0.155,0.113l-0.156,0.112l-0.158,0.111l-0.158,0.108l-0.16,0.107l-0.162,0.104
	l-0.163,0.104l-0.164,0.101l-0.166,0.101l-0.167,0.097l-0.168,0.095l-0.169,0.095l-0.171,0.091l-0.172,0.09l-0.173,0.087
	l-0.175,0.085l-0.175,0.083l-0.177,0.082l-0.178,0.079l-0.18,0.077l-0.18,0.075l-0.181,0.071l-0.183,0.071l-0.183,0.068
	l-0.184,0.066l-0.187,0.064l-0.186,0.062l-0.188,0.06l-0.188,0.058l-0.189,0.055l-0.19,0.053l-0.19,0.051l-0.192,0.048l-0.192,0.046
	l-0.194,0.044l-0.195,0.041l-0.195,0.038l-0.196,0.037l-0.198,0.034l-0.198,0.032l-0.198,0.028l-0.199,0.026l-0.201,0.025
	l-0.201,0.021l-0.202,0.021l-0.202,0.016l-0.203,0.015l-0.204,0.011l-0.205,0.01l-0.205,0.007l-0.206,0.004L16,32l-0.207-0.001
	l-0.206-0.004l-0.205-0.007l-0.205-0.01l-0.204-0.011l-0.203-0.015l-0.203-0.016l-0.202-0.021l-0.201-0.021l-0.201-0.025
	l-0.199-0.026l-0.199-0.028l-0.198-0.032l-0.198-0.034l-0.196-0.037l-0.196-0.038l-0.195-0.041l-0.194-0.044l-0.193-0.046
	l-0.192-0.048l-0.191-0.051l-0.19-0.053l-0.189-0.055l-0.189-0.058l-0.187-0.06l-0.186-0.062l-0.186-0.064l-0.184-0.066
	l-0.183-0.068l-0.182-0.071l-0.181-0.071l-0.18-0.075l-0.179-0.077l-0.178-0.079l-0.177-0.082l-0.175-0.083l-0.174-0.085
	l-0.173-0.087l-0.172-0.09l-0.171-0.091l-0.169-0.095l-0.168-0.095l-0.167-0.097l-0.166-0.101l-0.164-0.101l-0.163-0.104
	l-0.162-0.104l-0.16-0.107l-0.159-0.108L6.74,29.046l-0.156-0.112L6.429,28.82l-0.153-0.116l-0.152-0.118l-0.15-0.12l-0.149-0.122
	l-0.147-0.123l-0.146-0.125L5.387,27.97l-0.143-0.129l-0.141-0.13l-0.14-0.131l-0.138-0.134l-0.136-0.136l-0.135-0.136L4.42,27.037
	l-0.131-0.14l-0.13-0.142L4.03,26.613l-0.126-0.146l-0.125-0.146l-0.123-0.147l-0.122-0.148l-0.12-0.15l-0.118-0.152L3.18,25.571
	l-0.114-0.155L2.954,25.26l-0.111-0.158l-0.109-0.158l-0.107-0.16l-0.105-0.162l-0.103-0.163l-0.101-0.164l-0.1-0.166l-0.097-0.167
	l-0.095-0.168l-0.094-0.169l-0.091-0.171l-0.09-0.172l-0.087-0.173l-0.085-0.175l-0.083-0.175l-0.082-0.177l-0.079-0.178
	l-0.077-0.18l-0.075-0.18l-0.072-0.181L1.04,21.682l-0.068-0.183l-0.067-0.184l-0.064-0.187l-0.062-0.186L0.72,20.756l-0.058-0.188
	l-0.055-0.189l-0.052-0.19l-0.051-0.19l-0.048-0.192L0.41,19.612l-0.044-0.194l-0.041-0.195l-0.038-0.195L0.25,18.831l-0.034-0.198
	l-0.032-0.198l-0.029-0.198l-0.026-0.199l-0.025-0.201l-0.021-0.201l-0.02-0.202L0.047,17.23l-0.015-0.203l-0.011-0.204
	l-0.009-0.205l-0.007-0.205l-0.004-0.206L0,16l0.001-0.207l0.004-0.206l0.007-0.205l0.009-0.205l0.011-0.204l0.015-0.203
	l0.016-0.203l0.02-0.202l0.021-0.201l0.025-0.201l0.026-0.199l0.029-0.199l0.032-0.198l0.034-0.198l0.037-0.196l0.038-0.196
	l0.041-0.195l0.044-0.194l0.046-0.193l0.048-0.192l0.051-0.191l0.052-0.19l0.055-0.189l0.058-0.189l0.059-0.187l0.062-0.186
	l0.064-0.186l0.067-0.184l0.068-0.183l0.071-0.182l0.072-0.181l0.075-0.18l0.077-0.179l0.079-0.178l0.082-0.177l0.083-0.175
	l0.085-0.174l0.087-0.173l0.09-0.172l0.091-0.171l0.094-0.169l0.095-0.168l0.097-0.167l0.1-0.166l0.101-0.164l0.103-0.163
	l0.105-0.162l0.107-0.16l0.109-0.159L2.954,6.74l0.112-0.156L3.18,6.429l0.116-0.153l0.118-0.152l0.12-0.15l0.122-0.149l0.123-0.147
	l0.125-0.146L4.03,5.387l0.129-0.143l0.13-0.141l0.131-0.14l0.134-0.138l0.135-0.136l0.136-0.135L4.963,4.42l0.14-0.131l0.141-0.13
	L5.387,4.03l0.145-0.126l0.146-0.125l0.147-0.123l0.149-0.122l0.15-0.12l0.152-0.118L6.429,3.18l0.155-0.114L6.74,2.954l0.158-0.111
	l0.159-0.109l0.16-0.107l0.162-0.105l0.163-0.103l0.164-0.101l0.166-0.1l0.167-0.097l0.168-0.095l0.169-0.094l0.171-0.091
	l0.172-0.09l0.173-0.087l0.174-0.085l0.175-0.083l0.177-0.082l0.178-0.079l0.179-0.077l0.18-0.075l0.181-0.072l0.182-0.071
	l0.183-0.068l0.184-0.067l0.186-0.064l0.186-0.062l0.187-0.059l0.189-0.058l0.189-0.055l0.19-0.052l0.191-0.051l0.192-0.048
	l0.193-0.046l0.194-0.044l0.195-0.041l0.196-0.038l0.196-0.037l0.198-0.034l0.198-0.032l0.199-0.029l0.199-0.026l0.201-0.025
	l0.201-0.021l0.202-0.02l0.203-0.016l0.203-0.015l0.204-0.011l0.205-0.009l0.205-0.007l0.206-0.004L16,0L16.207,0.001L16.207,0.001z
	 M15.806,1.001l-0.193,0.004L15.42,1.011L15.228,1.02l-0.192,0.011l-0.19,0.013l-0.19,0.016l-0.19,0.018l-0.188,0.02L14.09,1.121
	l-0.188,0.025l-0.186,0.027l-0.186,0.03l-0.185,0.031l-0.184,0.035l-0.183,0.036l-0.183,0.039l-0.181,0.04l-0.181,0.043l-0.18,0.046
	L12.074,1.52l-0.179,0.049l-0.177,0.052l-0.176,0.054L11.366,1.73l-0.175,0.058l-0.173,0.06l-0.173,0.063l-0.172,0.064l-0.17,0.066
	l-0.17,0.068l-0.169,0.07L9.997,2.251L9.83,2.325L9.665,2.402L9.5,2.48L9.337,2.56L9.175,2.641L9.014,2.725l-0.16,0.086L8.695,2.898
	l-0.158,0.09L8.381,3.079L8.225,3.172L8.071,3.267L7.919,3.364L7.767,3.462l-0.15,0.101L7.468,3.665L7.32,3.768L7.174,3.874
	L7.028,3.981L6.885,4.09L6.742,4.201L6.601,4.313L6.462,4.427L6.323,4.542L6.186,4.659L6.051,4.778L5.917,4.899L5.784,5.021
	L5.653,5.144L5.524,5.269L5.396,5.396L5.269,5.524L5.144,5.653L5.021,5.784L4.899,5.917L4.778,6.051L4.659,6.186L4.542,6.323
	L4.427,6.462L4.313,6.601L4.201,6.742L4.09,6.885L3.981,7.028L3.874,7.174L3.768,7.32L3.665,7.468L3.563,7.617l-0.101,0.15
	L3.364,7.919L3.267,8.071L3.172,8.225L3.079,8.381L2.988,8.537l-0.09,0.158L2.811,8.854l-0.086,0.16L2.641,9.175L2.56,9.337
	L2.48,9.5L2.402,9.665L2.325,9.83L2.251,9.997l-0.072,0.167l-0.07,0.169l-0.068,0.17l-0.066,0.17l-0.064,0.172l-0.063,0.173
	l-0.06,0.173L1.73,11.366l-0.055,0.176l-0.054,0.176l-0.052,0.177L1.52,12.074l-0.047,0.179l-0.046,0.18l-0.043,0.181l-0.04,0.181
	l-0.039,0.183l-0.036,0.183l-0.035,0.184L1.203,13.53l-0.03,0.186l-0.027,0.186L1.121,14.09l-0.023,0.188l-0.02,0.188l-0.018,0.19
	l-0.016,0.19l-0.013,0.19L1.02,15.228L1.011,15.42l-0.006,0.193l-0.004,0.193L1,16l0.001,0.194l0.004,0.192l0.006,0.193l0.009,0.192
	l0.011,0.191l0.013,0.19l0.016,0.189l0.018,0.19l0.02,0.188l0.023,0.188l0.025,0.188l0.027,0.187l0.03,0.186l0.031,0.186
	l0.035,0.184l0.036,0.184l0.039,0.183l0.04,0.181l0.043,0.182l0.046,0.18l0.047,0.179l0.049,0.18l0.052,0.177l0.054,0.176
	l0.055,0.176l0.058,0.175l0.06,0.174l0.063,0.173l0.064,0.172l0.066,0.17l0.068,0.17l0.07,0.169l0.072,0.167l0.074,0.167
	l0.077,0.165L2.48,22.5l0.08,0.163l0.081,0.162l0.084,0.161l0.086,0.159l0.087,0.159l0.09,0.158l0.091,0.156l0.093,0.156
	l0.095,0.153l0.097,0.152l0.098,0.152l0.101,0.149l0.102,0.149l0.103,0.147l0.106,0.146l0.107,0.146l0.109,0.144l0.111,0.143
	l0.112,0.142l0.114,0.139l0.115,0.139l0.117,0.138l0.119,0.135l0.121,0.134l0.122,0.133l0.123,0.131l0.125,0.129l0.127,0.128
	l0.128,0.127l0.129,0.126l0.131,0.122l0.133,0.122l0.134,0.121l0.135,0.119l0.137,0.117l0.139,0.115l0.139,0.113l0.141,0.112
	l0.143,0.111l0.143,0.108l0.146,0.107l0.146,0.106l0.148,0.103l0.149,0.102l0.15,0.102l0.152,0.098l0.152,0.098l0.154,0.095
	l0.156,0.093l0.156,0.091l0.158,0.09l0.159,0.088l0.16,0.086l0.161,0.084l0.162,0.081L9.5,29.52l0.165,0.078l0.165,0.077
	l0.167,0.074l0.167,0.072l0.169,0.069l0.17,0.068l0.17,0.066l0.172,0.063l0.173,0.063l0.173,0.06l0.175,0.058l0.176,0.056
	l0.176,0.054l0.177,0.052l0.179,0.05l0.179,0.047l0.18,0.046l0.181,0.043l0.181,0.04l0.183,0.039l0.183,0.036l0.184,0.034
	l0.185,0.031l0.186,0.03l0.186,0.026l0.188,0.025l0.188,0.023l0.188,0.02l0.19,0.019l0.19,0.016l0.19,0.013l0.192,0.012l0.192,0.009
	l0.193,0.006l0.193,0.004L16,31l0.194-0.001l0.192-0.004l0.193-0.006l0.191-0.009l0.192-0.012l0.19-0.013l0.189-0.016l0.19-0.019
	l0.188-0.02l0.188-0.023l0.188-0.025l0.187-0.026l0.186-0.03l0.186-0.031l0.184-0.034l0.183-0.036l0.184-0.039l0.181-0.04
	l0.182-0.043l0.18-0.046l0.179-0.047l0.18-0.05l0.177-0.052l0.176-0.054l0.176-0.056l0.175-0.058l0.174-0.06l0.173-0.063
	l0.172-0.063l0.17-0.066l0.17-0.068l0.169-0.069l0.167-0.072l0.167-0.074l0.165-0.077L22.5,29.52l0.163-0.079l0.162-0.081
	l0.161-0.084l0.16-0.086l0.158-0.088l0.158-0.09l0.156-0.091l0.156-0.093l0.153-0.095l0.152-0.098l0.152-0.098l0.149-0.102
	l0.149-0.102l0.147-0.103l0.146-0.106l0.146-0.107l0.144-0.108l0.143-0.111l0.142-0.112l0.139-0.113l0.139-0.115l0.138-0.117
	l0.135-0.119l0.134-0.121l0.133-0.122l0.131-0.122l0.129-0.126l0.128-0.127l0.128-0.128l0.125-0.129l0.122-0.131l0.122-0.133
	l0.121-0.134l0.119-0.135l0.117-0.138l0.115-0.139l0.114-0.139l0.111-0.142l0.111-0.143l0.108-0.144l0.107-0.146l0.106-0.146
	l0.103-0.147l0.103-0.149l0.101-0.149l0.098-0.152l0.098-0.152l0.095-0.153l0.093-0.156l0.091-0.156l0.09-0.158l0.088-0.159
	l0.086-0.159l0.084-0.161l0.081-0.162L29.52,22.5l0.078-0.165l0.077-0.165l0.074-0.167l0.072-0.167l0.069-0.169l0.068-0.17
	l0.066-0.17l0.063-0.172l0.063-0.173l0.06-0.174l0.058-0.175l0.056-0.176l0.054-0.176l0.052-0.177l0.05-0.18l0.047-0.179l0.046-0.18
	l0.043-0.182l0.04-0.181l0.039-0.183l0.036-0.184l0.034-0.184l0.031-0.186l0.03-0.186l0.026-0.187l0.025-0.188l0.023-0.188
	l0.02-0.188l0.019-0.19l0.016-0.189l0.013-0.19l0.012-0.191l0.009-0.192l0.006-0.193l0.004-0.192L31,16l-0.001-0.194l-0.004-0.193
	l-0.006-0.193l-0.009-0.192l-0.012-0.192l-0.013-0.19l-0.016-0.19l-0.019-0.19l-0.02-0.188l-0.023-0.188l-0.025-0.188l-0.026-0.186
	l-0.03-0.186l-0.031-0.185l-0.034-0.184l-0.036-0.183l-0.039-0.183l-0.04-0.181l-0.043-0.181l-0.046-0.18l-0.047-0.179l-0.05-0.179
	l-0.052-0.177l-0.054-0.176l-0.056-0.176l-0.058-0.175l-0.06-0.173l-0.063-0.173l-0.063-0.172l-0.066-0.17l-0.068-0.17l-0.069-0.169
	l-0.072-0.167L29.675,9.83l-0.077-0.165L29.52,9.5L29.44,9.337l-0.081-0.162l-0.084-0.161l-0.086-0.16l-0.088-0.159l-0.09-0.158
	l-0.091-0.156l-0.093-0.156l-0.095-0.154l-0.098-0.152l-0.098-0.152l-0.101-0.15l-0.103-0.149L28.232,7.32l-0.106-0.146
	l-0.107-0.146L27.91,6.885l-0.111-0.143l-0.111-0.141l-0.114-0.139l-0.115-0.139l-0.117-0.137l-0.119-0.135l-0.121-0.134
	l-0.122-0.133l-0.122-0.131l-0.125-0.129l-0.128-0.128l-0.128-0.127l-0.129-0.125l-0.131-0.123l-0.133-0.122l-0.134-0.121
	l-0.135-0.119l-0.138-0.117l-0.139-0.115l-0.139-0.114l-0.142-0.112L25.115,4.09l-0.144-0.109l-0.146-0.107L24.68,3.768
	l-0.147-0.103l-0.149-0.102l-0.149-0.101l-0.152-0.098l-0.152-0.097l-0.153-0.095l-0.156-0.093l-0.156-0.091l-0.158-0.09
	l-0.158-0.087l-0.16-0.086l-0.161-0.084L22.663,2.56L22.5,2.48l-0.165-0.078L22.17,2.325l-0.167-0.074l-0.167-0.072l-0.169-0.07
	l-0.17-0.068l-0.17-0.066l-0.172-0.064l-0.173-0.063l-0.174-0.06L20.634,1.73l-0.176-0.055l-0.176-0.054l-0.177-0.052l-0.18-0.049
	l-0.179-0.047l-0.18-0.046l-0.182-0.043l-0.181-0.04l-0.184-0.039l-0.183-0.036l-0.184-0.035L18.47,1.203l-0.186-0.03l-0.187-0.027
	L17.91,1.121l-0.188-0.023l-0.188-0.02l-0.19-0.018l-0.189-0.016l-0.19-0.013L16.771,1.02L16.58,1.011l-0.193-0.006l-0.192-0.004
	L16,1L15.806,1.001L15.806,1.001z"/>
<path id="Equator__x2B__Median" fill="none" stroke="#000000" stroke-linecap="round" stroke-linejoin="round" stroke-miterlimit="10" d="
	M0.5,16h31 M16,0.5v31"/>
<path id="Longitudes" fill-rule="evenodd" clip-rule="evenodd" d="M16.116,0.001l0.116,0.004l0.115,0.007l0.115,0.009l0.115,0.011
	l0.114,0.015l0.113,0.016l0.114,0.02l0.113,0.021l0.113,0.025l0.111,0.026l0.112,0.029l0.111,0.032l0.11,0.034l0.111,0.037
	l0.109,0.038l0.109,0.041l0.109,0.044l0.108,0.046l0.108,0.048l0.108,0.051l0.106,0.052l0.106,0.055l0.105,0.058l0.105,0.059
	l0.104,0.062l0.105,0.064l0.103,0.067l0.104,0.068l0.103,0.071l0.103,0.072l0.101,0.075l0.1,0.077l0.101,0.079l0.1,0.082L19.9,1.579
	l0.098,0.085l0.098,0.087l0.097,0.09l0.096,0.091l0.096,0.094l0.094,0.095l0.095,0.097l0.093,0.1l0.093,0.101l0.091,0.103
	l0.092,0.105l0.091,0.107l0.089,0.109l0.089,0.111l0.087,0.112l0.087,0.114l0.087,0.116l0.085,0.118l0.085,0.12l0.083,0.122
	l0.083,0.123l0.082,0.125L21.97,4.03l0.08,0.129l0.08,0.13l0.078,0.131l0.078,0.134l0.077,0.135l0.076,0.136l0.074,0.138l0.074,0.14
	l0.073,0.141l0.072,0.143l0.07,0.145l0.07,0.146l0.07,0.147l0.067,0.149l0.067,0.15l0.067,0.152l0.064,0.153l0.064,0.155
	l0.063,0.156l0.062,0.158l0.061,0.159l0.06,0.16l0.06,0.162l0.058,0.163l0.058,0.164l0.056,0.166l0.055,0.167l0.055,0.168
	l0.052,0.169l0.051,0.171l0.051,0.172l0.05,0.173l0.048,0.174l0.047,0.175l0.045,0.177l0.045,0.178l0.043,0.179l0.042,0.18
	l0.041,0.181l0.04,0.182l0.039,0.183l0.037,0.184l0.036,0.186l0.034,0.186l0.033,0.187l0.032,0.189l0.031,0.189l0.029,0.19
	l0.028,0.191l0.028,0.192l0.024,0.193l0.025,0.194l0.023,0.195l0.021,0.196l0.021,0.196l0.019,0.198l0.018,0.198l0.018,0.199
	l0.015,0.199l0.014,0.201l0.012,0.201l0.011,0.202l0.01,0.203l0.009,0.203l0.006,0.204l0.005,0.205l0.004,0.205l0.002,0.206L25,16
	l-0.001,0.207l-0.002,0.206l-0.004,0.205l-0.005,0.205l-0.006,0.204l-0.009,0.203l-0.01,0.202l-0.011,0.202l-0.012,0.201
	l-0.014,0.201l-0.015,0.199l-0.018,0.198l-0.018,0.198l-0.019,0.198l-0.021,0.196l-0.021,0.195l-0.023,0.195l-0.025,0.194
	l-0.024,0.192l-0.028,0.192l-0.028,0.19l-0.029,0.19l-0.031,0.189l-0.032,0.188l-0.033,0.188l-0.034,0.186l-0.036,0.187
	l-0.037,0.184l-0.039,0.183l-0.04,0.183l-0.041,0.181l-0.042,0.18l-0.043,0.18l-0.045,0.178l-0.045,0.177l-0.047,0.175l-0.048,0.175
	l-0.05,0.173l-0.051,0.172l-0.051,0.171l-0.052,0.169l-0.055,0.168l-0.055,0.167l-0.056,0.166l-0.058,0.164l-0.058,0.163
	l-0.06,0.162l-0.06,0.16l-0.061,0.158l-0.062,0.158l-0.063,0.156l-0.064,0.155l-0.064,0.152l-0.067,0.152l-0.067,0.15l-0.067,0.148
	l-0.07,0.147l-0.07,0.146l-0.07,0.146l-0.072,0.143l-0.073,0.142l-0.074,0.14l-0.074,0.138l-0.076,0.136l-0.077,0.136l-0.078,0.134
	l-0.078,0.131l-0.08,0.13l-0.08,0.129l-0.082,0.126l-0.082,0.125l-0.083,0.123l-0.083,0.122l-0.085,0.12l-0.085,0.118l-0.087,0.116
	l-0.087,0.113l-0.087,0.112l-0.089,0.111l-0.089,0.108l-0.091,0.107l-0.092,0.104l-0.091,0.104l-0.093,0.101l-0.093,0.101
	l-0.095,0.097l-0.094,0.095l-0.096,0.095l-0.096,0.091l-0.097,0.09l-0.098,0.087L19.9,30.421l-0.099,0.083l-0.1,0.082l-0.101,0.079
	l-0.1,0.077l-0.101,0.075l-0.103,0.071l-0.103,0.071l-0.104,0.068l-0.103,0.066l-0.105,0.064l-0.104,0.062l-0.105,0.06l-0.105,0.058
	l-0.106,0.055l-0.106,0.053l-0.108,0.051l-0.108,0.048l-0.108,0.046l-0.109,0.044l-0.109,0.041l-0.109,0.038l-0.111,0.037
	l-0.11,0.034l-0.111,0.032l-0.112,0.028l-0.111,0.026l-0.113,0.025l-0.113,0.021l-0.114,0.021l-0.113,0.016l-0.114,0.015
	l-0.115,0.011l-0.115,0.01l-0.115,0.007l-0.116,0.004L16,32l-0.116-0.001l-0.116-0.004l-0.116-0.007l-0.115-0.01l-0.115-0.011
	l-0.114-0.015l-0.114-0.016l-0.114-0.021l-0.113-0.021l-0.113-0.025l-0.112-0.026l-0.112-0.028l-0.111-0.032l-0.111-0.034
	l-0.111-0.037l-0.11-0.038l-0.109-0.041l-0.109-0.044l-0.109-0.046l-0.108-0.048l-0.108-0.051l-0.107-0.053l-0.106-0.055
	l-0.106-0.058l-0.105-0.06l-0.105-0.062l-0.105-0.064l-0.103-0.066l-0.103-0.068l-0.103-0.071l-0.102-0.071l-0.101-0.075l-0.1-0.077
	l-0.1-0.079l-0.1-0.082L12.1,30.421l-0.098-0.085l-0.098-0.087l-0.096-0.09l-0.096-0.091l-0.096-0.095l-0.094-0.095l-0.094-0.097
	l-0.093-0.101l-0.093-0.101l-0.091-0.104l-0.091-0.104l-0.091-0.107l-0.089-0.108l-0.089-0.111l-0.087-0.112l-0.087-0.113
	l-0.087-0.116l-0.085-0.118l-0.085-0.12l-0.083-0.122l-0.083-0.123l-0.082-0.125L10.03,27.97l-0.08-0.129l-0.08-0.13L9.792,27.58
	l-0.078-0.134l-0.077-0.136l-0.076-0.136l-0.075-0.138l-0.074-0.14l-0.073-0.142l-0.072-0.143l-0.071-0.146l-0.07-0.146l-0.07-0.147
	l-0.068-0.148l-0.067-0.15l-0.067-0.152l-0.065-0.152l-0.064-0.155L8.661,25.26l-0.062-0.158l-0.061-0.158l-0.06-0.16l-0.059-0.162
	l-0.058-0.163l-0.057-0.164l-0.056-0.166l-0.055-0.167l-0.054-0.168l-0.052-0.169l-0.051-0.171l-0.051-0.172l-0.049-0.173
	l-0.048-0.175l-0.047-0.175l-0.045-0.177l-0.045-0.178l-0.043-0.18l-0.042-0.18l-0.041-0.181l-0.04-0.183l-0.039-0.183l-0.037-0.184
	l-0.036-0.187l-0.035-0.186l-0.033-0.188l-0.032-0.188l-0.031-0.189l-0.03-0.19l-0.028-0.19l-0.028-0.192l-0.025-0.192l-0.025-0.194
	l-0.023-0.195l-0.022-0.195l-0.02-0.196l-0.019-0.198l-0.018-0.198l-0.017-0.198l-0.015-0.199l-0.013-0.201l-0.012-0.201
	l-0.011-0.202l-0.01-0.202l-0.008-0.203l-0.006-0.204l-0.005-0.205l-0.004-0.205l-0.002-0.206L7,16l0.001-0.207l0.002-0.206
	l0.004-0.205l0.005-0.205l0.006-0.204l0.008-0.203l0.01-0.203l0.011-0.202l0.012-0.201l0.013-0.201l0.015-0.199l0.017-0.199
	l0.018-0.198l0.019-0.198l0.02-0.196l0.022-0.196l0.023-0.195l0.025-0.194l0.025-0.193l0.028-0.192l0.028-0.191l0.03-0.19
	l0.031-0.189l0.032-0.189l0.033-0.187l0.035-0.186l0.036-0.186l0.037-0.184l0.039-0.183l0.04-0.182l0.041-0.181l0.042-0.18
	l0.043-0.179l0.045-0.178l0.045-0.177l0.047-0.175l0.048-0.174l0.049-0.173l0.051-0.172l0.051-0.171l0.052-0.169l0.054-0.168
	l0.055-0.167l0.056-0.166l0.057-0.164l0.058-0.163l0.059-0.162l0.06-0.16l0.061-0.159L8.661,6.74l0.064-0.156l0.064-0.155
	l0.065-0.153l0.067-0.152l0.067-0.15l0.068-0.149l0.07-0.147l0.07-0.146l0.071-0.145l0.072-0.143l0.073-0.141l0.074-0.14
	l0.075-0.138l0.076-0.136l0.077-0.135L9.792,4.42L9.87,4.289l0.08-0.13l0.08-0.129l0.082-0.126l0.082-0.125l0.083-0.123l0.083-0.122
	l0.085-0.12l0.085-0.118l0.087-0.116l0.087-0.114l0.087-0.112l0.089-0.111l0.089-0.109l0.091-0.107l0.091-0.105l0.091-0.103
	l0.093-0.101l0.093-0.1l0.094-0.097l0.094-0.095l0.096-0.094l0.096-0.091l0.096-0.09l0.098-0.087L12.1,1.579l0.098-0.083l0.1-0.082
	l0.1-0.079l0.1-0.077l0.101-0.075l0.102-0.072l0.103-0.071l0.103-0.068l0.103-0.067l0.105-0.064l0.105-0.062l0.105-0.059
	l0.106-0.058l0.106-0.055l0.107-0.052l0.108-0.051l0.108-0.048l0.109-0.046l0.109-0.044l0.109-0.041l0.11-0.038l0.111-0.037
	l0.111-0.034l0.111-0.032l0.112-0.029l0.112-0.026l0.113-0.025l0.113-0.021l0.114-0.02l0.114-0.016l0.114-0.015l0.115-0.011
	l0.115-0.009l0.116-0.007l0.116-0.004L16,0L16.116,0.001L16.116,0.001z M15.906,1.001l-0.093,0.003L15.72,1.01l-0.093,0.007
	l-0.093,0.009l-0.092,0.012L15.35,1.051l-0.092,0.016l-0.091,0.017l-0.092,0.02l-0.091,0.022L14.893,1.15l-0.091,0.025l-0.091,0.028
	l-0.091,0.03l-0.091,0.032l-0.09,0.034l-0.091,0.036l-0.09,0.038l-0.09,0.04l-0.09,0.043L13.988,1.5l-0.089,0.046l-0.09,0.049
	l-0.089,0.05l-0.089,0.053l-0.089,0.055l-0.089,0.056l-0.089,0.059l-0.088,0.061l-0.089,0.063l-0.088,0.065l-0.087,0.067
	l-0.088,0.07l-0.087,0.071L12.75,2.338l-0.086,0.075l-0.086,0.078L12.492,2.57l-0.086,0.081l-0.085,0.084L12.237,2.82l-0.085,0.088
	l-0.083,0.089l-0.084,0.091l-0.083,0.094L11.82,3.277l-0.082,0.097l-0.081,0.099l-0.081,0.101l-0.08,0.103l-0.08,0.104l-0.079,0.107
	l-0.079,0.108L11.18,4.107l-0.077,0.112l-0.077,0.114L10.95,4.448l-0.075,0.118L10.8,4.685l-0.074,0.121l-0.073,0.122l-0.072,0.125
	l-0.072,0.126l-0.071,0.128l-0.07,0.129l-0.07,0.131L10.23,5.7l-0.068,0.134L10.095,5.97l-0.066,0.137L9.963,6.246L9.899,6.387
	L9.835,6.529L9.772,6.672L9.711,6.817L9.65,6.964L9.59,7.112L9.531,7.261L9.473,7.412L9.416,7.564L9.359,7.718L9.304,7.873
	L9.25,8.03L9.197,8.187L9.145,8.346L9.093,8.507l-0.05,0.161L8.994,8.831L8.946,8.996L8.899,9.161L8.853,9.328L8.808,9.496
	L8.765,9.665l-0.043,0.17l-0.041,0.171L8.64,10.179l-0.039,0.173l-0.038,0.175l-0.037,0.176L8.49,10.88l-0.034,0.178l-0.034,0.179
	l-0.032,0.18l-0.031,0.181l-0.03,0.182l-0.028,0.183l-0.028,0.184l-0.026,0.185l-0.025,0.185l-0.023,0.187l-0.023,0.188L8.155,13.08
	l-0.019,0.189l-0.019,0.19L8.1,13.65l-0.016,0.192L8.07,14.035l-0.013,0.193l-0.012,0.194l-0.011,0.195l-0.009,0.196l-0.007,0.196
	l-0.007,0.197l-0.005,0.197l-0.003,0.199L8.001,15.8L8,16l0.001,0.2l0.002,0.198l0.003,0.198l0.005,0.197l0.007,0.197l0.007,0.195
	l0.009,0.196l0.011,0.195l0.012,0.193l0.013,0.193l0.014,0.193L8.1,18.35l0.017,0.191l0.019,0.19l0.019,0.188l0.021,0.188
	l0.023,0.188l0.023,0.188l0.025,0.185l0.026,0.185l0.028,0.185l0.028,0.183l0.03,0.183l0.031,0.181l0.032,0.18l0.034,0.18
	L8.49,21.12l0.036,0.177l0.037,0.176l0.038,0.176l0.039,0.173l0.041,0.173l0.041,0.171l0.043,0.17l0.043,0.169l0.045,0.168
	l0.046,0.167l0.047,0.165l0.048,0.165l0.049,0.163l0.05,0.161l0.052,0.161l0.052,0.158L9.25,23.97l0.054,0.157l0.055,0.155
	l0.057,0.153l0.057,0.152l0.058,0.151l0.059,0.148l0.06,0.148l0.061,0.146l0.061,0.146l0.063,0.143l0.064,0.143l0.064,0.141
	l0.066,0.139l0.066,0.138l0.067,0.136L10.23,26.3l0.068,0.133l0.07,0.132l0.07,0.129l0.071,0.128l0.072,0.126l0.072,0.125
	l0.073,0.122l0.074,0.121l0.075,0.118l0.075,0.118l0.076,0.115l0.077,0.114l0.077,0.111l0.078,0.111l0.079,0.108l0.079,0.106
	l0.08,0.104l0.08,0.103l0.081,0.102l0.081,0.099l0.082,0.097l0.082,0.096l0.083,0.094l0.084,0.091l0.083,0.089l0.085,0.088
	l0.084,0.085l0.085,0.084l0.086,0.081l0.086,0.079l0.086,0.078l0.086,0.075l0.087,0.073l0.087,0.07l0.088,0.07l0.087,0.067
	l0.088,0.064l0.089,0.063l0.088,0.061l0.089,0.06l0.089,0.056l0.089,0.055l0.089,0.054l0.089,0.05l0.09,0.049l0.089,0.046
	l0.09,0.044l0.09,0.043l0.09,0.04l0.09,0.038l0.091,0.036l0.09,0.034l0.091,0.031l0.091,0.03l0.091,0.028l0.091,0.024l0.091,0.024
	l0.091,0.022l0.092,0.02l0.091,0.017l0.092,0.017l0.092,0.013l0.092,0.012l0.093,0.01l0.093,0.007l0.093,0.006l0.093,0.003L16,31
	l0.094-0.001l0.093-0.003l0.094-0.006l0.093-0.007l0.093-0.01l0.092-0.012l0.093-0.013l0.092-0.017l0.091-0.017l0.092-0.02
	l0.091-0.022l0.092-0.024l0.091-0.024l0.091-0.028l0.091-0.03l0.091-0.031l0.09-0.034l0.092-0.036l0.09-0.038l0.09-0.04l0.09-0.043
	l0.09-0.044l0.089-0.046l0.091-0.049l0.089-0.05l0.089-0.054l0.089-0.055l0.089-0.056l0.089-0.06l0.088-0.061l0.089-0.063
	l0.089-0.064l0.087-0.067l0.088-0.07l0.087-0.07l0.087-0.073l0.086-0.075l0.086-0.078l0.086-0.079l0.086-0.081l0.085-0.084
	l0.084-0.085l0.085-0.088l0.083-0.089l0.084-0.091l0.083-0.094l0.082-0.096l0.082-0.097l0.081-0.099l0.081-0.102l0.08-0.103
	l0.08-0.104l0.079-0.106l0.079-0.108l0.078-0.111l0.076-0.111l0.077-0.114l0.076-0.115l0.075-0.118l0.075-0.118l0.074-0.121
	l0.072-0.122l0.072-0.125l0.072-0.126l0.07-0.128l0.07-0.129l0.07-0.132L21.77,26.3l0.068-0.134l0.067-0.136l0.065-0.138
	l0.066-0.139l0.063-0.141l0.064-0.143l0.062-0.143l0.062-0.146l0.061-0.146l0.061-0.148l0.059-0.148l0.059-0.151l0.057-0.152
	l0.057-0.153l0.056-0.155l0.054-0.157l0.053-0.157l0.053-0.158l0.052-0.161l0.05-0.161l0.049-0.163l0.048-0.165l0.047-0.165
	l0.046-0.167l0.046-0.168l0.043-0.169l0.043-0.17l0.041-0.171l0.041-0.173l0.039-0.173l0.037-0.176l0.037-0.176l0.036-0.177
	l0.034-0.178l0.034-0.18l0.032-0.18l0.03-0.181l0.03-0.183l0.028-0.183l0.027-0.185l0.026-0.185l0.025-0.185l0.022-0.188
	l0.023-0.188l0.021-0.188l0.02-0.188l0.019-0.19L23.9,18.35l0.016-0.191l0.014-0.193l0.014-0.193l0.012-0.193l0.011-0.195
	l0.009-0.196l0.008-0.195l0.007-0.197l0.005-0.197l0.003-0.198l0.002-0.198L24,16l-0.001-0.2l-0.002-0.198l-0.003-0.199
	l-0.005-0.197l-0.007-0.197l-0.008-0.196l-0.009-0.196l-0.011-0.195l-0.012-0.194l-0.014-0.193l-0.014-0.193L23.9,13.65
	l-0.018-0.191l-0.019-0.19l-0.02-0.189l-0.021-0.188l-0.023-0.188l-0.022-0.187l-0.025-0.185l-0.026-0.185l-0.027-0.184
	l-0.028-0.183l-0.03-0.182l-0.03-0.181l-0.032-0.18l-0.034-0.179L23.51,10.88l-0.036-0.177l-0.037-0.176l-0.037-0.175l-0.039-0.173
	l-0.041-0.173l-0.041-0.171l-0.043-0.17l-0.043-0.169l-0.046-0.168l-0.046-0.167l-0.047-0.165l-0.048-0.165l-0.049-0.163
	l-0.05-0.161l-0.052-0.161l-0.053-0.159L22.75,8.03l-0.054-0.157l-0.056-0.155l-0.057-0.154l-0.057-0.152l-0.059-0.151L22.41,7.112
	L22.35,6.964l-0.061-0.147l-0.062-0.145l-0.062-0.143l-0.064-0.142l-0.063-0.141l-0.066-0.139L21.905,5.97l-0.067-0.136L21.77,5.7
	l-0.067-0.133l-0.07-0.131l-0.07-0.129l-0.07-0.128l-0.072-0.126l-0.072-0.125l-0.072-0.122L21.2,4.685l-0.075-0.119L21.05,4.448
	l-0.076-0.115l-0.077-0.114L20.82,4.107l-0.078-0.111l-0.079-0.108l-0.079-0.107l-0.08-0.104l-0.08-0.103l-0.081-0.101l-0.081-0.099
	L20.18,3.277l-0.082-0.095l-0.083-0.094l-0.084-0.091l-0.083-0.089L19.763,2.82l-0.084-0.085l-0.085-0.084L19.508,2.57l-0.086-0.079
	l-0.086-0.078L19.25,2.338l-0.087-0.073l-0.087-0.071l-0.088-0.07l-0.087-0.067l-0.089-0.065l-0.089-0.063l-0.088-0.061
	l-0.089-0.059l-0.089-0.056l-0.089-0.055L18.28,1.645l-0.089-0.05l-0.091-0.049L18.012,1.5l-0.09-0.044l-0.09-0.043l-0.09-0.04
	l-0.09-0.038l-0.092-0.036l-0.09-0.034L17.38,1.233l-0.091-0.03l-0.091-0.028L17.107,1.15l-0.092-0.024l-0.091-0.022l-0.092-0.02
	l-0.091-0.017L16.65,1.051l-0.093-0.013l-0.092-0.012l-0.093-0.009L16.28,1.01l-0.094-0.006l-0.093-0.003L16,1L15.906,1.001
	L15.906,1.001z"/>
<path id="Northern_Latitudes" fill-rule="evenodd" clip-rule="evenodd" d="M16.116,0l0.115,0.002l0.114,0.002l0.115,0.003
	l0.115,0.003l0.115,0.005l0.113,0.005l0.114,0.006l0.114,0.007l0.113,0.008l0.114,0.008l0.113,0.009l0.113,0.01L17.6,0.079
	l0.113,0.012l0.112,0.012l0.112,0.013l0.111,0.014l0.112,0.015l0.112,0.015l0.11,0.016l0.111,0.017l0.111,0.018l0.109,0.019
	l0.11,0.019l0.109,0.02l0.11,0.021l0.109,0.021l0.109,0.022l0.108,0.023l0.109,0.024l0.107,0.024l0.109,0.026l0.106,0.026
	l0.108,0.026l0.106,0.028l0.107,0.028l0.107,0.028l0.105,0.03l0.106,0.03l0.105,0.031l0.105,0.032l0.104,0.032l0.105,0.033
	l0.104,0.034l0.104,0.034l0.104,0.035l0.104,0.036l0.103,0.037l0.104,0.037l0.103,0.038l0.103,0.038l0.102,0.04l0.103,0.039
	l0.201,0.082l0.2,0.085l0.2,0.087l0.198,0.09l0.195,0.092l0.195,0.095l0.194,0.097l0.191,0.1l0.19,0.103l0.189,0.105l0.188,0.107
	l0.185,0.11l0.185,0.112l0.183,0.115l0.182,0.117l0.179,0.12l0.177,0.121l0.176,0.125l0.175,0.126l0.172,0.129l0.17,0.131
	l0.169,0.133l0.167,0.135l0.165,0.138l0.163,0.139l0.161,0.142l0.158,0.144l0.157,0.146l0.155,0.148l0.153,0.15l0.151,0.152
	l0.149,0.154l0.146,0.157l0.146,0.158l0.143,0.16l0.142,0.162l0.138,0.164l-0.133,0.096l-0.137,0.095l-0.138,0.093l-0.14,0.093
	l-0.144,0.092l-0.145,0.09l-0.147,0.089L27.157,6.49l-0.152,0.087l-0.154,0.085l-0.155,0.085L26.537,6.83l-0.16,0.082l-0.162,0.081
	l-0.165,0.08l-0.166,0.078l-0.168,0.077l-0.171,0.076l-0.172,0.074l-0.174,0.074l-0.176,0.071l-0.179,0.071l-0.18,0.069L24.483,7.73
	L24.3,7.797l-0.186,0.064l-0.188,0.064l-0.188,0.062l-0.19,0.06l-0.191,0.059l-0.194,0.058L22.967,8.22L22.77,8.275l-0.198,0.053
	l-0.2,0.051l-0.202,0.05l-0.203,0.049l-0.205,0.046L21.555,8.57l-0.208,0.043l-0.209,0.042l-0.21,0.041l-0.212,0.038l-0.213,0.037
	l-0.214,0.036L20.073,8.84l-0.217,0.032l-0.219,0.031l-0.219,0.028l-0.221,0.027l-0.222,0.025l-0.223,0.024L18.53,9.028l-0.226,0.02
	l-0.226,0.018l-0.229,0.016l-0.228,0.014l-0.229,0.012l-0.229,0.011l-0.231,0.008l-0.231,0.007l-0.233,0.005l-0.232,0.003L16,9.143
	l-0.235-0.001l-0.233-0.003l-0.233-0.005l-0.232-0.007l-0.231-0.008l-0.23-0.011l-0.229-0.012l-0.228-0.014l-0.228-0.016
	l-0.226-0.018l-0.225-0.02l-0.224-0.021l-0.223-0.024l-0.221-0.025l-0.221-0.027l-0.219-0.028l-0.218-0.031L11.927,8.84
	l-0.216-0.033l-0.214-0.036l-0.213-0.037l-0.212-0.038l-0.21-0.041l-0.209-0.042L10.445,8.57l-0.206-0.046l-0.205-0.046L9.831,8.429
	l-0.202-0.05l-0.2-0.051L9.23,8.275L9.033,8.22L8.838,8.164L8.644,8.106L8.452,8.047l-0.19-0.06L8.073,7.925L7.886,7.861L7.7,7.797
	L7.517,7.73L7.335,7.663l-0.18-0.069L6.977,7.523L6.801,7.452L6.627,7.378L6.455,7.304L6.284,7.228L6.116,7.151L5.95,7.073
	l-0.165-0.08L5.623,6.912L5.463,6.83L5.305,6.747L5.149,6.662L4.995,6.577L4.843,6.49L4.694,6.401L4.547,6.312l-0.145-0.09
	L4.259,6.13l-0.14-0.093L3.981,5.944L3.845,5.849L3.712,5.753L3.85,5.589l0.141-0.162l0.143-0.16l0.145-0.158l0.147-0.157
	l0.149-0.154l0.152-0.152l0.153-0.15l0.155-0.148l0.157-0.146l0.159-0.144l0.161-0.142l0.163-0.139L5.84,3.639l0.167-0.135
	l0.169-0.133l0.17-0.131l0.172-0.129l0.174-0.126L6.868,2.86l0.177-0.121l0.179-0.12l0.181-0.117l0.183-0.115l0.184-0.112
	l0.185-0.11l0.188-0.107l0.189-0.105l0.19-0.103l0.192-0.1L8.91,1.653l0.195-0.095l0.196-0.092l0.198-0.09l0.199-0.087l0.201-0.085
	l0.202-0.082l0.102-0.039l0.102-0.04l0.102-0.038l0.103-0.038l0.103-0.037l0.103-0.037l0.103-0.036l0.104-0.035l0.104-0.034
	l0.105-0.034l0.105-0.033l0.105-0.032l0.105-0.032l0.106-0.031l0.106-0.03l0.106-0.03l0.107-0.028l0.107-0.028l0.107-0.028
	l0.108-0.026l0.107-0.026l0.108-0.026l0.109-0.024l0.108-0.024l0.109-0.023l0.11-0.022l0.109-0.021l0.11-0.021l0.11-0.02l0.11-0.019
	l0.11-0.019l0.111-0.018l0.111-0.017l0.111-0.016l0.112-0.015L13.95,0.13l0.112-0.014l0.113-0.013l0.112-0.012L14.4,0.079
	l0.113-0.011l0.113-0.01l0.113-0.009l0.114-0.008l0.113-0.008l0.114-0.007l0.115-0.006l0.114-0.005l0.115-0.005l0.115-0.003
	l0.115-0.003l0.115-0.002L15.884,0H16H16.116L16.116,0z M15.891,1l-0.108,0.002l-0.108,0.001l-0.108,0.003L15.459,1.01l-0.107,0.004
	l-0.108,0.005l-0.107,0.005L15.03,1.031l-0.107,0.007l-0.106,0.008l-0.106,0.009l-0.107,0.009l-0.105,0.01l-0.106,0.011
	l-0.106,0.012l-0.105,0.012l-0.105,0.013l-0.104,0.014L13.868,1.15l-0.104,0.015L13.66,1.181l-0.104,0.017l-0.104,0.017
	l-0.103,0.018l-0.103,0.019l-0.103,0.02l-0.102,0.02l-0.103,0.021l-0.102,0.021l-0.102,0.022l-0.101,0.023l-0.101,0.024
	l-0.101,0.024L12.33,1.452l-0.1,0.026l-0.101,0.026l-0.1,0.027L11.93,1.559l-0.1,0.028l-0.099,0.029l-0.098,0.029l-0.099,0.031
	l-0.098,0.031l-0.098,0.031L11.24,1.771l-0.097,0.033l-0.097,0.033l-0.097,0.034l-0.096,0.035l-0.096,0.036l-0.096,0.036
	l-0.096,0.037l-0.093,0.036l-0.191,0.078l-0.188,0.079L9.906,2.289L9.72,2.374L9.536,2.46L9.353,2.549L9.172,2.64l-0.18,0.094
	L8.814,2.83L8.636,2.929l-0.175,0.1L8.287,3.132L8.114,3.238L7.943,3.345l-0.17,0.11L7.606,3.567L7.439,3.681L7.274,3.798
	L7.111,3.916L6.95,4.037L6.79,4.159L6.632,4.284L6.476,4.411L6.321,4.54L6.168,4.671L6.017,4.804L5.868,4.939L5.721,5.076
	L5.575,5.215L5.431,5.356L5.289,5.498l-0.057,0.06l0.114,0.067l0.141,0.081l0.144,0.08l0.145,0.079l0.148,0.078l0.15,0.077
	l0.152,0.076l0.155,0.075l0.156,0.073l0.159,0.073l0.16,0.071l0.163,0.07l0.164,0.069L7.35,6.595l0.169,0.067l0.17,0.065
	l0.172,0.065l0.174,0.062l0.176,0.062l0.178,0.06l0.18,0.059L8.75,7.093l0.183,0.056l0.185,0.055l0.187,0.054L9.493,7.31l0.19,0.05
	l0.191,0.05l0.193,0.047l0.194,0.047l0.196,0.045l0.198,0.043l0.199,0.042l0.2,0.04l0.202,0.039l0.203,0.037l0.205,0.035
	l0.206,0.034l0.207,0.033l0.208,0.031l0.21,0.029l0.211,0.027l0.212,0.026l0.214,0.024l0.214,0.022l0.216,0.021l0.216,0.019
	l0.218,0.017l0.219,0.016l0.22,0.014l0.221,0.012l0.221,0.01L15.1,8.128l0.224,0.006l0.224,0.005l0.226,0.003L16,8.143l0.226-0.001
	l0.227-0.003l0.224-0.005L16.9,8.128l0.223-0.008l0.221-0.01l0.222-0.012l0.22-0.014l0.219-0.016l0.218-0.017l0.216-0.019
	l0.217-0.021l0.214-0.022l0.214-0.024l0.212-0.026l0.211-0.027l0.21-0.029l0.208-0.031l0.207-0.033l0.206-0.034l0.205-0.035
	l0.203-0.037l0.202-0.039l0.199-0.04l0.199-0.042l0.198-0.043l0.196-0.045l0.193-0.047l0.193-0.047l0.191-0.05l0.189-0.05
	l0.188-0.052l0.187-0.054l0.186-0.055l0.183-0.056l0.181-0.058l0.181-0.059l0.178-0.06l0.176-0.062l0.174-0.062l0.172-0.065
	l0.171-0.065l0.169-0.067l0.167-0.068l0.164-0.069l0.162-0.07l0.16-0.071l0.159-0.073l0.156-0.073l0.155-0.075l0.151-0.076
	l0.15-0.077l0.147-0.078l0.146-0.079l0.144-0.08l0.142-0.081l0.113-0.067l-0.057-0.06l-0.142-0.142l-0.145-0.141l-0.146-0.139
	l-0.147-0.137l-0.148-0.135l-0.151-0.133L25.679,4.54l-0.154-0.129l-0.156-0.127L25.21,4.159l-0.16-0.122l-0.161-0.121l-0.163-0.118
	l-0.165-0.117l-0.167-0.114l-0.167-0.112l-0.17-0.11l-0.171-0.107l-0.173-0.106l-0.174-0.103l-0.175-0.1L23.186,2.83l-0.178-0.096
	l-0.18-0.094l-0.181-0.091L22.464,2.46L22.28,2.374l-0.187-0.085l-0.187-0.081l-0.188-0.079l-0.19-0.078l-0.094-0.036l-0.096-0.037
	l-0.096-0.036l-0.096-0.036l-0.097-0.035l-0.097-0.034l-0.097-0.033L20.76,1.771l-0.098-0.033l-0.098-0.031l-0.099-0.031
	l-0.099-0.031l-0.099-0.029L20.17,1.587l-0.1-0.028l-0.1-0.028l-0.1-0.027L19.77,1.478l-0.1-0.026l-0.101-0.025l-0.102-0.024
	l-0.101-0.024l-0.103-0.023l-0.101-0.022l-0.102-0.021l-0.104-0.021l-0.102-0.02l-0.104-0.02l-0.103-0.019l-0.104-0.018
	l-0.104-0.017L18.34,1.181l-0.104-0.016L18.132,1.15l-0.104-0.014l-0.104-0.014l-0.104-0.013l-0.106-0.012l-0.104-0.012
	l-0.106-0.011l-0.105-0.01l-0.106-0.009l-0.106-0.009l-0.105-0.008L16.97,1.031l-0.106-0.007l-0.107-0.005l-0.107-0.005L16.541,1.01
	l-0.108-0.004l-0.107-0.003l-0.108-0.001L16.109,1H16H15.891L15.891,1z"/>
<path id="Southern_Latitudes" fill-rule="evenodd" clip-rule="evenodd" d="M16.235,22.858l0.232,0.003l0.233,0.005l0.231,0.007
	l0.231,0.008l0.229,0.011l0.229,0.013l0.228,0.014l0.229,0.016l0.226,0.019l0.226,0.02l0.224,0.021l0.223,0.023l0.222,0.025
	l0.221,0.027l0.219,0.027l0.219,0.031l0.217,0.032l0.216,0.033l0.214,0.035l0.213,0.037l0.212,0.038l0.21,0.041l0.209,0.042
	l0.208,0.043l0.206,0.046l0.205,0.047l0.203,0.049l0.202,0.05l0.2,0.051l0.198,0.053l0.197,0.056l0.195,0.056l0.194,0.058
	l0.191,0.06l0.19,0.06l0.188,0.062l0.188,0.063l0.186,0.064l0.184,0.066l0.182,0.067l0.18,0.069l0.179,0.07l0.176,0.071l0.174,0.074
	l0.172,0.074l0.171,0.075l0.168,0.077l0.166,0.078l0.165,0.08l0.162,0.081l0.16,0.082l0.158,0.083l0.155,0.085l0.154,0.085
	l0.152,0.087l0.148,0.089l0.147,0.089l0.145,0.091l0.144,0.092l0.14,0.093l0.138,0.093l0.137,0.096l0.133,0.096l-0.138,0.164
	l-0.142,0.162l-0.143,0.16l-0.146,0.157l-0.146,0.157l-0.149,0.154l-0.151,0.151l-0.153,0.15l-0.155,0.148l-0.157,0.146
	l-0.158,0.145l-0.161,0.142l-0.163,0.139l-0.165,0.139l-0.167,0.135l-0.169,0.133l-0.17,0.131l-0.172,0.129l-0.175,0.126
	l-0.176,0.125l-0.177,0.121l-0.179,0.12l-0.182,0.117l-0.183,0.115l-0.185,0.111l-0.185,0.11l-0.188,0.107l-0.189,0.104l-0.19,0.104
	l-0.191,0.1l-0.194,0.097l-0.195,0.096l-0.195,0.092l-0.198,0.09l-0.2,0.087l-0.2,0.085l-0.201,0.082l-0.103,0.039l-0.102,0.04
	l-0.103,0.038l-0.103,0.038l-0.104,0.037l-0.103,0.037l-0.104,0.035l-0.104,0.035l-0.104,0.034l-0.104,0.034l-0.105,0.033
	l-0.104,0.031l-0.105,0.032l-0.105,0.031l-0.106,0.03l-0.105,0.029l-0.107,0.028l-0.107,0.028l-0.106,0.027l-0.108,0.026
	l-0.106,0.026l-0.109,0.025l-0.107,0.024l-0.109,0.023l-0.108,0.023l-0.109,0.022l-0.109,0.021l-0.11,0.021l-0.109,0.02l-0.11,0.019
	l-0.109,0.02l-0.111,0.018l-0.111,0.018l-0.11,0.016l-0.112,0.016l-0.112,0.015l-0.111,0.014l-0.112,0.013l-0.112,0.013L17.6,31.921
	l-0.112,0.011l-0.113,0.011l-0.113,0.009l-0.114,0.008l-0.113,0.008l-0.114,0.007l-0.114,0.007l-0.113,0.005l-0.115,0.005
	l-0.115,0.003l-0.115,0.003l-0.114,0.002L16.116,32H16h-0.116l-0.115-0.002l-0.115-0.002l-0.115-0.003l-0.115-0.003l-0.115-0.005
	l-0.114-0.005l-0.115-0.007l-0.114-0.007l-0.113-0.008l-0.114-0.008l-0.113-0.009l-0.113-0.011L14.4,31.921l-0.113-0.012
	l-0.112-0.013l-0.113-0.013L13.95,31.87l-0.111-0.015l-0.112-0.016l-0.111-0.016l-0.111-0.018l-0.111-0.018l-0.11-0.02l-0.11-0.019
	l-0.11-0.02l-0.11-0.021l-0.109-0.021l-0.11-0.022l-0.109-0.023l-0.108-0.023l-0.109-0.024l-0.108-0.025l-0.107-0.026l-0.108-0.026
	l-0.107-0.027l-0.107-0.028l-0.107-0.028l-0.106-0.029l-0.106-0.03l-0.106-0.031l-0.105-0.032l-0.105-0.031l-0.105-0.033
	l-0.105-0.034l-0.104-0.034l-0.104-0.035l-0.103-0.035l-0.103-0.037l-0.103-0.037l-0.103-0.038l-0.102-0.038l-0.102-0.04
	l-0.102-0.039l-0.202-0.082l-0.201-0.085l-0.199-0.087l-0.198-0.09l-0.196-0.092L8.91,30.347L8.716,30.25l-0.192-0.1l-0.19-0.104
	l-0.189-0.104l-0.188-0.107l-0.185-0.11l-0.184-0.111l-0.183-0.115l-0.181-0.117l-0.179-0.12L6.868,29.14l-0.176-0.125l-0.174-0.126
	L6.346,28.76l-0.17-0.131l-0.169-0.133L5.84,28.361l-0.165-0.139l-0.163-0.139l-0.161-0.142l-0.159-0.145l-0.157-0.146L4.88,27.504
	l-0.153-0.15l-0.152-0.151l-0.149-0.154l-0.147-0.157l-0.145-0.157l-0.143-0.16L3.85,26.411l-0.138-0.164l0.133-0.096l0.136-0.096
	l0.138-0.093l0.14-0.093l0.143-0.092l0.145-0.091l0.147-0.089l0.149-0.089l0.152-0.087l0.154-0.085l0.156-0.085l0.158-0.083
	l0.16-0.082l0.162-0.081l0.165-0.08l0.166-0.078l0.168-0.077l0.171-0.075l0.172-0.074l0.174-0.074l0.176-0.071l0.178-0.07
	l0.18-0.069l0.182-0.067L7.7,24.203l0.186-0.064l0.187-0.063l0.189-0.062l0.19-0.06l0.192-0.06l0.194-0.058l0.195-0.056l0.197-0.056
	l0.199-0.053l0.2-0.051l0.202-0.05l0.203-0.049l0.205-0.047l0.206-0.046l0.208-0.043l0.209-0.042l0.21-0.041l0.212-0.038
	l0.213-0.037l0.214-0.035l0.216-0.033l0.217-0.032l0.218-0.031l0.219-0.027l0.221-0.027l0.221-0.025l0.223-0.023l0.224-0.021
	l0.225-0.02l0.226-0.019l0.228-0.016l0.228-0.014l0.229-0.013l0.23-0.011l0.231-0.008l0.232-0.007l0.233-0.005l0.233-0.003
	L16,22.857L16.235,22.858L16.235,22.858z M15.774,23.858l-0.226,0.003l-0.224,0.005L15.1,23.872l-0.223,0.008l-0.221,0.01
	l-0.221,0.013l-0.22,0.014l-0.219,0.016l-0.218,0.018l-0.216,0.019l-0.216,0.021l-0.214,0.021l-0.214,0.024l-0.212,0.025
	l-0.211,0.027l-0.21,0.029l-0.208,0.031l-0.207,0.032l-0.206,0.034l-0.205,0.035l-0.203,0.037l-0.202,0.039l-0.2,0.04l-0.199,0.042
	l-0.198,0.043l-0.196,0.045l-0.194,0.047L9.874,24.59l-0.191,0.05l-0.19,0.051l-0.188,0.052l-0.187,0.054l-0.185,0.055L8.75,24.907
	l-0.181,0.058l-0.18,0.06l-0.178,0.06l-0.176,0.062l-0.174,0.062l-0.172,0.065l-0.17,0.064L7.35,25.405l-0.167,0.067l-0.164,0.069
	l-0.163,0.07l-0.16,0.07l-0.159,0.073l-0.156,0.073l-0.155,0.075L6.074,25.98l-0.15,0.076l-0.148,0.078l-0.145,0.079l-0.144,0.08
	l-0.141,0.081l-0.114,0.067l0.057,0.06l0.142,0.142l0.144,0.142l0.146,0.139l0.147,0.137l0.149,0.136l0.151,0.133l0.153,0.131
	l0.155,0.129l0.156,0.127l0.158,0.125l0.16,0.122l0.161,0.121l0.163,0.118l0.165,0.117l0.167,0.113l0.167,0.112l0.17,0.11
	l0.171,0.106l0.173,0.106l0.174,0.103l0.175,0.101l0.178,0.099l0.178,0.096l0.18,0.095l0.181,0.091l0.183,0.089l0.184,0.086
	l0.186,0.085l0.187,0.081l0.188,0.079l0.191,0.078l0.093,0.036l0.096,0.036l0.096,0.036l0.096,0.036l0.096,0.035l0.097,0.034
	l0.097,0.033l0.097,0.032l0.098,0.033l0.098,0.031l0.098,0.031l0.099,0.031l0.098,0.028l0.099,0.029l0.1,0.028l0.099,0.027
	l0.1,0.027l0.101,0.025l0.1,0.026l0.101,0.025l0.101,0.023l0.101,0.024l0.102,0.022l0.101,0.022l0.102,0.021l0.103,0.021l0.102,0.02
	l0.103,0.021l0.103,0.019l0.103,0.019l0.104,0.017l0.104,0.018l0.104,0.016l0.104,0.015l0.105,0.015l0.104,0.014l0.105,0.013
	l0.105,0.013l0.106,0.012l0.106,0.011l0.105,0.01l0.107,0.01l0.106,0.009l0.106,0.008l0.107,0.007l0.107,0.007l0.107,0.006
	l0.108,0.005l0.107,0.004l0.108,0.004l0.108,0.003l0.108,0.001L15.891,31H16h0.109l0.107-0.002l0.108-0.001l0.107-0.003l0.108-0.004
	l0.107-0.004l0.107-0.005l0.107-0.006l0.106-0.007l0.107-0.007l0.105-0.008l0.106-0.009l0.106-0.01l0.105-0.01l0.106-0.011
	l0.104-0.012l0.106-0.013l0.104-0.013l0.104-0.014l0.104-0.015l0.104-0.015l0.104-0.016l0.104-0.018l0.104-0.017l0.104-0.019
	l0.103-0.019l0.104-0.021l0.102-0.02l0.104-0.021l0.102-0.021l0.101-0.022l0.103-0.022l0.101-0.024l0.102-0.023l0.101-0.025
	l0.1-0.026l0.102-0.025l0.1-0.027l0.1-0.027l0.1-0.028l0.099-0.029l0.099-0.028l0.099-0.031l0.099-0.031l0.098-0.031l0.098-0.033
	l0.098-0.032l0.097-0.033l0.097-0.034l0.097-0.035l0.096-0.036l0.096-0.036l0.096-0.036l0.094-0.036l0.19-0.078l0.188-0.079
	l0.187-0.081l0.187-0.085l0.184-0.086l0.184-0.089l0.181-0.091l0.18-0.095l0.178-0.096l0.179-0.099l0.175-0.101l0.174-0.103
	l0.173-0.106l0.171-0.106l0.17-0.11l0.167-0.112l0.167-0.113l0.165-0.117l0.163-0.118l0.161-0.121l0.16-0.122l0.158-0.125
	l0.156-0.127l0.154-0.129l0.153-0.131l0.151-0.133l0.148-0.136l0.147-0.137l0.146-0.139l0.145-0.142l0.142-0.142l0.057-0.06
	l-0.113-0.067l-0.142-0.081l-0.144-0.08l-0.146-0.079l-0.147-0.078l-0.15-0.076l-0.151-0.076l-0.155-0.075l-0.156-0.073
	l-0.159-0.073l-0.16-0.07l-0.162-0.07l-0.164-0.069l-0.167-0.067l-0.169-0.067l-0.171-0.064l-0.172-0.065l-0.174-0.062l-0.176-0.062
	l-0.178-0.06l-0.181-0.06l-0.181-0.058l-0.183-0.057l-0.186-0.055l-0.187-0.054l-0.188-0.052l-0.189-0.051l-0.191-0.05l-0.193-0.047
	l-0.193-0.047l-0.196-0.045l-0.198-0.043l-0.199-0.042l-0.199-0.04l-0.202-0.039l-0.203-0.037l-0.205-0.035l-0.206-0.034
	l-0.207-0.032l-0.208-0.031l-0.21-0.029l-0.211-0.027l-0.212-0.025l-0.214-0.024l-0.214-0.021l-0.217-0.021l-0.216-0.019
	l-0.218-0.018l-0.219-0.016l-0.22-0.014l-0.222-0.013l-0.221-0.01L16.9,23.872l-0.225-0.006l-0.224-0.005l-0.227-0.003L16,23.857
	L15.774,23.858L15.774,23.858z"/>
</svg>
